<?xml version="1.0" standalone="no"?>
<!DOCTYPE svg PUBLIC "-//W3C//DTD SVG 20010904//EN"
 "http://www.w3.org/TR/2001/REC-SVG-20010904/DTD/svg10.dtd">
<svg version="1.0" xmlns="http://www.w3.org/2000/svg"
 width="353.000000pt" height="252.000000pt" viewBox="0 0 353.000000 252.000000"
 preserveAspectRatio="xMidYMid meet">

<g transform="translate(0.000000,252.000000) scale(0.100000,-0.100000)"
fill="#000000" stroke="none">
<path d="M1460 2373 c-44 -16 -50 -33 -50 -134 0 -123 6 -129 127 -129 78 0
83 -1 83 -21 0 -12 -11 -34 -25 -51 -23 -27 -25 -37 -25 -131 1 -61 6 -114 14
-132 33 -75 -63 -164 -216 -200 -35 -8 -72 -15 -82 -15 -18 0 -18 1 -3 18 78
86 53 243 -49 311 -56 36 -110 46 -173 31 -154 -37 -218 -233 -114 -352 14
-15 12 -17 -24 -23 -219 -35 -364 -162 -419 -366 -12 -44 -17 -102 -17 -187 0
-67 -4 -122 -9 -122 -21 0 -88 -75 -107 -121 -19 -44 -22 -63 -17 -142 14
-233 22 -314 34 -334 19 -34 99 -53 216 -53 143 0 204 20 227 75 5 13 8 -1 8
-45 1 -83 14 -126 48 -162 40 -42 95 -54 150 -33 24 9 51 28 60 41 l15 24 19
-24 c11 -14 39 -32 63 -41 70 -27 138 1 175 72 8 15 11 194 11 612 l0 591 28
5 c69 15 195 66 246 100 68 45 116 102 153 181 25 52 28 71 28 159 0 55 -5
136 -11 180 -7 49 -7 82 -2 86 5 3 44 9 86 13 108 9 122 24 122 131 0 76 -2
85 -30 120 -16 21 -30 41 -30 45 0 23 -64 30 -273 29 -122 0 -229 -3 -237 -6z
m468 -55 c7 -7 12 -22 12 -35 0 -16 6 -23 20 -23 18 0 20 -7 20 -69 0 -39 -4
-73 -10 -76 -5 -3 -64 -11 -130 -17 l-120 -12 0 -37 c0 -31 4 -38 23 -41 19
-3 23 -12 31 -68 5 -36 10 -108 10 -160 1 -85 -2 -101 -27 -152 -55 -112 -178
-199 -332 -234 -38 -9 -76 -18 -82 -20 -10 -3 -13 -133 -13 -609 0 -415 -3
-613 -11 -627 -17 -31 -71 -50 -108 -37 -57 20 -61 41 -61 314 l0 245 -35 0
-34 0 -3 -255 -3 -255 -27 -27 c-37 -36 -90 -36 -127 1 l-26 26 -3 596 -3 595
-22 -7 c-139 -42 -209 -197 -187 -411 5 -47 10 -86 12 -87 39 -23 80 -65 97
-99 26 -54 30 -187 6 -207 -12 -10 -15 -37 -15 -121 0 -137 4 -134 -175 -134
-108 0 -136 3 -158 18 -27 17 -27 19 -27 127 0 67 -4 110 -10 110 -6 0 -10 34
-10 83 0 107 24 157 96 205 l50 33 -7 76 c-23 240 62 432 229 517 80 41 120
47 337 56 220 9 319 26 404 69 57 30 106 82 126 135 17 44 17 49 1 84 -13 28
-16 59 -14 127 3 85 4 90 26 93 20 3 22 9 22 57 0 30 3 56 8 59 4 2 62 10 130
17 67 6 122 15 122 18 0 3 -106 5 -235 3 l-235 -3 0 79 c0 43 3 82 7 85 12 13
448 8 461 -5z m-721 -474 c64 -48 87 -117 63 -188 -16 -49 -82 -104 -135 -112
-97 -14 -187 66 -187 166 0 135 153 215 259 134z m-367 -836 l0 -251 -29 39
c-15 21 -40 49 -55 61 -25 22 -26 26 -26 131 0 71 5 124 15 153 16 46 69 119
86 119 5 0 9 -104 9 -252z"/>
<path d="M522 780 c-34 -21 -72 -74 -72 -102 0 -14 5 -15 32 -7 18 5 73 9 123
9 50 0 105 -4 123 -9 27 -8 32 -7 32 7 0 47 -79 127 -103 103 -16 -16 -62 -14
-77 4 -16 19 -18 19 -58 -5z"/>
<path d="M1745 855 c-14 -13 -25 -36 -25 -50 0 -31 41 -75 70 -75 28 0 62 19
55 30 -4 6 -14 5 -25 -2 -14 -9 -25 -9 -44 0 -21 9 -26 19 -26 46 0 42 26 60
73 51 30 -6 31 -5 13 10 -29 22 -63 19 -91 -10z"/>
<path d="M1870 870 c0 -5 9 -10 20 -10 18 0 20 -7 20 -65 0 -51 3 -65 15 -65
12 0 15 14 15 65 0 63 1 65 25 65 14 0 25 5 25 10 0 6 -27 10 -60 10 -33 0
-60 -4 -60 -10z"/>
<path d="M2010 805 c0 -60 3 -75 15 -75 9 0 15 9 15 25 0 18 5 25 19 25 25 0
51 26 51 50 0 29 -28 50 -66 50 l-34 0 0 -75z m65 25 c0 -16 -6 -26 -17 -28
-14 -3 -18 3 -18 28 0 25 4 31 18 28 11 -2 17 -12 17 -28z"/>
<path d="M2142 812 c-12 -38 -22 -71 -22 -75 0 -16 19 -6 25 13 8 24 65 29 65
6 0 -15 18 -31 26 -24 9 9 -44 143 -57 146 -10 2 -22 -19 -37 -66z m41 -20
c-20 -5 -22 -1 -15 33 l5 30 13 -30 c10 -25 10 -31 -3 -33z"/>
<path d="M2260 805 c0 -60 3 -75 15 -75 10 0 15 10 15 30 0 28 3 30 35 30 32
0 35 -2 35 -30 0 -20 5 -30 15 -30 12 0 15 15 15 75 0 60 -3 75 -15 75 -10 0
-15 -11 -15 -35 0 -33 -2 -35 -35 -35 -33 0 -35 2 -35 35 0 24 -5 35 -15 35
-12 0 -15 -15 -15 -75z"/>
<path d="M2420 805 c0 -93 14 -98 65 -23 l35 53 0 -53 c0 -40 4 -52 15 -52 12
0 15 15 15 75 0 93 -14 98 -65 23 l-35 -53 0 53 c0 40 -4 52 -15 52 -12 0 -15
-15 -15 -75z"/>
<path d="M2580 805 l0 -75 60 0 c47 0 60 -3 60 -15 0 -8 5 -15 10 -15 6 0 10
11 10 25 0 14 -4 25 -10 25 -6 0 -10 28 -10 65 0 51 -3 65 -15 65 -12 0 -15
-14 -15 -65 l0 -65 -30 0 -30 0 0 65 c0 51 -3 65 -15 65 -12 0 -15 -15 -15
-75z"/>
<path d="M2752 812 c-12 -38 -22 -71 -22 -75 0 -16 19 -6 25 13 8 24 65 29 65
6 0 -15 18 -31 26 -24 9 9 -44 143 -57 146 -10 2 -22 -19 -37 -66z m41 -20
c-20 -5 -22 -1 -15 33 l5 30 13 -30 c10 -25 10 -31 -3 -33z"/>
<path d="M1730 555 l0 -75 34 0 c51 0 83 39 55 67 -8 8 -8 17 0 31 15 28 -10
52 -55 52 l-34 0 0 -75z m68 32 c2 -12 -3 -17 -17 -17 -15 0 -21 6 -21 21 0
25 33 22 38 -4z m0 -59 c-5 -34 -38 -37 -38 -4 0 20 5 26 21 26 15 0 20 -5 17
-22z"/>
<path d="M1910 555 c0 -60 3 -75 15 -75 9 0 15 9 15 25 0 20 5 25 25 25 15 0
31 9 41 25 15 23 15 27 0 50 -13 20 -25 25 -56 25 l-40 0 0 -75z m75 25 c0
-18 -6 -26 -22 -28 -20 -3 -23 1 -23 28 0 27 3 31 23 28 16 -2 22 -10 22 -28z"/>
<path d="M2042 562 c-12 -38 -22 -71 -22 -75 0 -16 19 -6 25 13 8 24 65 29 65
6 0 -15 18 -31 26 -24 9 9 -44 143 -57 146 -10 2 -22 -19 -37 -66z m41 -20
c-20 -5 -22 -1 -15 33 l5 30 13 -30 c10 -25 10 -31 -3 -33z"/>
<path d="M2183 623 c-23 -9 -14 -22 14 -20 19 1 28 -3 31 -15 2 -13 -3 -18
-17 -18 -27 0 -27 -16 0 -23 14 -4 19 -12 17 -24 -3 -14 -12 -17 -38 -16 -33
3 -34 2 -16 -12 25 -19 51 -19 70 1 19 18 20 36 5 51 -8 8 -8 17 0 31 18 34
-23 63 -66 45z"/>
<path d="M2280 555 c0 -60 3 -75 15 -75 9 0 15 9 15 25 0 20 5 25 24 25 29 0
56 24 56 50 0 30 -28 50 -71 50 l-39 0 0 -75z m75 25 c0 -18 -6 -26 -22 -28
-20 -3 -23 1 -23 28 0 27 3 31 23 28 16 -2 22 -10 22 -28z"/>
<path d="M2422 562 c-12 -38 -22 -71 -22 -75 0 -16 19 -6 25 13 8 24 65 29 65
6 0 -15 18 -31 26 -24 9 9 -44 143 -57 146 -10 2 -22 -19 -37 -66z m41 -20
c-20 -5 -22 -1 -15 33 l5 30 13 -30 c10 -25 10 -31 -3 -33z"/>
<path d="M2540 555 l0 -75 39 0 c51 0 79 32 57 65 -7 11 -25 21 -40 23 -40 5
-36 42 4 42 17 0 30 5 30 10 0 6 -20 10 -45 10 l-45 0 0 -75z m75 -30 c0 -13
-8 -21 -22 -23 -19 -3 -23 1 -23 23 0 22 4 26 23 23 14 -2 22 -10 22 -23z"/>
<path d="M2707 623 c-27 -7 -47 -60 -35 -94 21 -61 115 -59 137 3 22 63 -30
110 -102 91z m65 -30 c22 -20 23 -51 1 -75 -20 -22 -41 -23 -65 -1 -22 20 -23
51 -1 75 20 22 41 23 65 1z"/>
<path d="M2830 620 c0 -5 9 -10 20 -10 18 0 20 -7 20 -65 0 -51 3 -65 15 -65
12 0 15 14 15 65 0 63 1 65 25 65 14 0 25 5 25 10 0 6 -27 10 -60 10 -33 0
-60 -4 -60 -10z"/>
<path d="M2970 555 c0 -60 3 -75 15 -75 10 0 15 11 15 35 0 19 5 35 10 35 6 0
18 -16 27 -35 9 -19 23 -35 30 -35 10 0 8 10 -7 41 l-21 40 20 35 c16 27 17
34 6 34 -8 0 -21 -13 -30 -30 -9 -16 -20 -30 -25 -30 -6 0 -10 14 -10 30 0 20
-5 30 -15 30 -12 0 -15 -15 -15 -75z"/>
<path d="M3100 555 l0 -75 45 0 c25 0 45 5 45 10 0 6 -13 10 -30 10 -25 0 -30
4 -30 25 0 20 5 25 25 25 14 0 25 5 25 10 0 6 -11 10 -25 10 -18 0 -25 5 -25
20 0 16 7 20 30 20 17 0 30 5 30 10 0 6 -20 10 -45 10 l-45 0 0 -75z"/>
<path d="M3277 503 c-12 -11 -8 -23 8 -23 8 0 15 7 15 15 0 16 -12 20 -23 8z"/>
<path d="M3330 496 c0 -9 7 -16 16 -16 9 0 14 5 12 12 -6 18 -28 21 -28 4z"/>
<path d="M3380 496 c0 -9 7 -16 16 -16 17 0 14 22 -4 28 -7 2 -12 -3 -12 -12z"/>
</g>
</svg>
