<?xml version="1.0" standalone="no"?>
<!DOCTYPE svg PUBLIC "-//W3C//DTD SVG 20010904//EN"
 "http://www.w3.org/TR/2001/REC-SVG-20010904/DTD/svg10.dtd">
<svg version="1.0" xmlns="http://www.w3.org/2000/svg"
 width="624.000000pt" height="644.000000pt" viewBox="0 0 624.000000 644.000000"
 preserveAspectRatio="xMidYMid meet">

<g transform="translate(0.000000,644.000000) scale(0.100000,-0.100000)"
fill="#000000" stroke="none">
<path d="M2705 6230 c-55 -5 -152 -20 -215 -34 -1070 -242 -1883 -941 -2286
-1965 -96 -245 -141 -472 -165 -831 -14 -208 -7 -543 16 -718 40 -313 177
-709 350 -1007 152 -262 298 -450 519 -670 283 -281 574 -483 922 -639 381
-171 728 -252 1140 -263 570 -16 1026 90 1549 361 267 137 394 237 719 560
323 322 391 410 530 686 204 403 292 663 343 1005 25 172 25 734 0 915 -61
435 -224 855 -482 1245 -500 755 -1249 1217 -2176 1341 -134 18 -614 27 -764
14z m969 -1809 c3 -4 40 -11 82 -14 41 -4 92 -14 112 -23 78 -34 146 -69 179
-91 19 -13 38 -23 44 -23 5 0 12 -7 15 -15 4 -8 11 -15 18 -15 6 0 27 -17 47
-38 20 -20 48 -46 63 -56 14 -10 26 -24 26 -31 0 -6 12 -22 26 -36 47 -44 134
-187 134 -221 0 -10 5 -18 11 -18 5 0 7 -5 4 -10 -4 -6 -2 -16 3 -23 6 -7 14
-45 17 -85 4 -40 12 -75 16 -78 12 -7 12 -214 0 -214 -4 0 -11 -39 -14 -86 -3
-47 -11 -92 -17 -99 -7 -8 -9 -23 -5 -34 3 -10 2 -22 -4 -25 -5 -3 -12 -24
-16 -46 -4 -22 -10 -40 -15 -40 -4 0 -11 -17 -15 -37 -4 -21 -18 -61 -31 -89
-13 -28 -24 -56 -24 -62 0 -7 -4 -12 -9 -12 -5 0 -12 -11 -15 -24 -3 -14 -12
-31 -19 -38 -15 -17 -31 -42 -56 -89 -11 -19 -27 -41 -35 -48 -9 -8 -16 -19
-16 -25 0 -14 -133 -187 -240 -313 -83 -98 -371 -393 -383 -393 -4 0 -53 -40
-110 -90 -56 -49 -108 -90 -114 -90 -7 0 -13 -5 -13 -10 0 -6 -8 -14 -17 -17
-9 -4 -24 -14 -34 -22 -31 -28 -70 -54 -109 -73 -14 -7 -31 -18 -38 -25 -7 -7
-28 -15 -47 -19 -19 -3 -35 -10 -35 -15 0 -11 -43 -12 -55 -1 -6 5 -29 15 -52
22 -24 7 -43 16 -43 19 0 4 -12 12 -27 18 -38 16 -66 35 -76 50 -4 7 -13 13
-19 13 -12 0 -19 6 -82 64 -21 20 -41 36 -45 36 -3 0 -19 13 -36 29 -16 16
-50 47 -74 68 -124 109 -293 288 -456 482 -11 13 -37 44 -58 68 -20 25 -45 59
-54 76 -8 18 -33 53 -54 78 -22 26 -39 51 -39 56 0 6 -9 18 -20 28 -11 10 -20
24 -20 32 0 7 -6 16 -14 19 -8 3 -17 13 -20 22 -4 9 -17 35 -31 57 -31 51 -55
104 -55 121 0 7 -4 15 -9 18 -4 3 -14 26 -21 51 -7 25 -16 48 -21 50 -4 3 -10
23 -14 45 -4 22 -11 42 -15 45 -5 3 -7 12 -3 20 3 9 1 21 -5 28 -6 7 -13 41
-17 77 -4 36 -9 72 -12 80 -17 43 5 417 27 445 4 6 12 30 18 55 6 25 20 63 32
85 11 21 20 45 20 52 0 7 3 13 8 13 4 0 12 8 17 19 41 76 188 230 245 255 14
6 27 13 30 16 3 3 28 15 55 28 28 13 58 27 67 32 44 24 196 33 349 22 84 -7
157 -16 163 -21 6 -6 35 -13 64 -17 28 -3 52 -10 52 -14 0 -4 18 -10 40 -14
22 -3 40 -10 40 -15 0 -5 16 -12 35 -15 19 -4 38 -12 42 -19 17 -26 76 -47
134 -47 32 0 59 4 59 9 0 5 16 12 35 15 19 4 35 10 35 14 0 5 17 14 38 21 20
8 39 17 42 20 8 10 71 41 83 41 7 0 24 6 39 14 36 19 119 36 173 36 25 0 45 5
45 10 0 12 87 14 94 1z m-2428 -87 c19 -15 34 -32 34 -38 0 -7 6 -18 13 -24 6
-7 12 -16 13 -20 0 -4 6 -20 13 -37 15 -35 7 -131 -13 -155 -7 -8 -16 -22 -20
-30 -13 -28 -31 -56 -62 -95 -17 -22 -33 -45 -35 -52 -4 -11 -110 -140 -181
-219 -21 -23 -38 -45 -38 -49 0 -9 -49 -70 -140 -175 -134 -155 -164 -192
-183 -223 -11 -18 -28 -41 -38 -53 -19 -20 -18 -21 86 -142 58 -67 105 -127
105 -132 0 -5 33 -47 73 -93 152 -176 173 -201 211 -256 21 -31 42 -58 45 -61
17 -14 112 -130 111 -135 -1 -4 13 -24 30 -45 17 -21 31 -42 30 -45 -1 -4 10
-20 25 -35 73 -76 21 -214 -118 -316 -79 -58 -106 -58 -187 2 -63 47 -260 240
-260 255 0 5 -6 9 -12 10 -7 0 -53 48 -103 106 -86 101 -173 202 -280 327 -27
32 -52 63 -54 69 -3 11 -55 78 -84 110 -7 7 -19 24 -27 38 -8 15 -33 53 -55
85 -51 76 -62 94 -75 124 -5 14 -15 33 -20 42 -13 22 -13 78 -1 78 5 0 12 13
16 29 3 16 13 35 21 42 8 6 14 17 14 25 0 7 15 34 33 60 17 25 37 53 42 63 6
9 24 34 41 56 17 22 36 50 42 62 7 12 18 27 24 35 41 42 117 136 128 157 7 13
25 38 40 55 70 79 185 213 203 238 11 15 25 28 30 28 5 0 26 19 46 43 93 108
233 236 301 273 19 10 41 25 48 32 8 7 39 12 73 12 50 0 66 -5 95 -26z m3880
-23 c74 -51 217 -188 299 -285 28 -33 84 -99 125 -146 41 -48 98 -114 126
-146 28 -33 62 -77 76 -99 14 -22 49 -66 77 -98 28 -32 56 -68 62 -80 7 -12
27 -40 46 -63 18 -23 33 -45 33 -51 0 -5 12 -20 26 -34 14 -13 32 -37 40 -54
21 -43 40 -75 53 -88 13 -13 15 -47 2 -47 -5 0 -12 -11 -15 -25 -4 -14 -11
-25 -16 -25 -6 0 -10 -5 -10 -12 0 -16 -84 -139 -115 -168 -14 -13 -25 -28
-25 -34 0 -6 -10 -23 -23 -37 -12 -15 -53 -64 -92 -109 -38 -46 -74 -88 -80
-94 -53 -59 -125 -145 -125 -149 0 -2 -17 -22 -37 -44 -21 -21 -73 -80 -116
-131 -43 -50 -114 -128 -158 -173 -43 -44 -79 -85 -79 -90 0 -5 -4 -9 -9 -9
-5 0 -39 -28 -74 -62 -35 -35 -79 -71 -96 -81 -36 -19 -91 -23 -91 -6 0 5 -4
8 -9 4 -19 -11 -127 110 -137 152 -3 15 -8 35 -11 43 -16 44 14 134 63 191 8
8 14 19 14 23 0 4 16 27 35 50 19 24 35 47 35 52 0 5 24 36 53 69 30 33 65 78
79 100 14 22 61 81 104 130 44 50 102 117 129 150 28 32 92 107 144 167 l94
109 -20 22 c-10 12 -37 42 -58 67 -96 110 -140 164 -144 174 -3 10 -67 93 -81
106 -25 24 -180 211 -190 230 -7 14 -35 50 -62 81 -26 30 -48 59 -48 63 0 5
-19 31 -42 59 -24 28 -43 54 -43 58 0 4 -9 18 -20 31 -40 46 -64 134 -44 163
3 6 9 27 12 48 6 41 60 117 83 117 8 0 14 4 14 9 0 14 26 19 106 20 69 1 72 0
140 -48z"/>
<path d="M2285 3893 c-11 -2 -34 -11 -52 -19 -17 -8 -36 -14 -41 -14 -6 0 -33
-22 -60 -48 -52 -51 -85 -120 -104 -222 -14 -74 -5 -242 16 -310 31 -99 104
-232 182 -332 16 -20 38 -49 49 -64 131 -183 322 -386 579 -617 l179 -161 235
240 c300 306 426 451 557 644 60 88 175 300 175 322 0 7 7 26 15 41 37 72 43
246 11 321 -42 98 -122 170 -228 206 -57 19 -82 22 -160 18 -138 -7 -265 -57
-388 -152 -75 -58 -206 -136 -228 -136 -34 0 -109 46 -227 137 -131 101 -275
154 -416 152 -41 -1 -83 -3 -94 -6z"/>
</g>
</svg>
