<?xml version="1.0" standalone="no"?>
<!DOCTYPE svg PUBLIC "-//W3C//DTD SVG 20010904//EN"
 "http://www.w3.org/TR/2001/REC-SVG-20010904/DTD/svg10.dtd">
<svg version="1.0" xmlns="http://www.w3.org/2000/svg"
 width="517.000000pt" height="383.000000pt" viewBox="0 0 517.000000 383.000000"
 preserveAspectRatio="xMidYMid meet">

<g transform="translate(0.000000,383.000000) scale(0.100000,-0.100000)"
fill="#000000" stroke="none">
<path d="M1080 2791 c-282 -53 -495 -237 -590 -511 -30 -87 -39 -274 -17 -377
75 -349 408 -603 762 -580 115 8 189 28 295 80 69 34 103 59 181 137 84 83
103 107 142 190 59 121 77 198 77 330 0 124 -17 203 -65 308 -118 255 -356
414 -640 427 -55 2 -120 0 -145 -4z m86 -556 c19 -12 26 -12 60 6 69 36 147
15 198 -55 32 -43 28 -127 -9 -191 -34 -58 -122 -149 -183 -190 -39 -26 -45
-27 -70 -14 -54 28 -173 152 -203 211 -56 112 -22 224 76 251 31 9 106 -2 131
-18z m-276 -55 c10 -18 3 -29 -56 -90 l-67 -70 66 -69 c37 -38 67 -73 67 -78
-1 -17 -28 -43 -46 -43 -25 0 -184 159 -184 185 0 11 34 54 82 102 86 87 118
101 138 63z m738 -64 c45 -46 82 -90 82 -97 0 -19 -172 -189 -191 -189 -20 0
-39 20 -39 40 0 8 29 44 65 80 l64 64 -64 67 c-36 37 -65 72 -65 77 0 27 14
42 39 42 21 0 46 -19 109 -84z"/>
<path d="M1027 2152 c-20 -21 -22 -74 -5 -105 20 -38 78 -104 124 -142 l44
-37 68 66 c67 64 112 134 112 172 0 64 -77 85 -140 39 -19 -14 -38 -25 -43
-25 -4 0 -23 11 -41 25 -40 30 -95 33 -119 7z"/>
<path d="M2430 2235 c0 -96 2 -106 18 -103 12 2 18 14 20 41 l3 37 49 0 49 0
3 -37 c2 -27 8 -39 21 -41 15 -3 17 7 17 103 0 96 -2 106 -17 103 -13 -2 -19
-15 -21 -46 l-3 -42 -49 0 -49 0 -3 42 c-2 31 -8 44 -20 46 -16 3 -18 -7 -18
-103z"/>
<path d="M2640 2320 c0 -16 7 -20 35 -20 l35 0 0 -85 c0 -78 2 -85 20 -85 17
0 19 8 22 83 l3 82 33 3 c24 2 32 8 32 23 0 17 -8 19 -90 19 -83 0 -90 -1 -90
-20z"/>
<path d="M2850 2235 c0 -87 3 -105 15 -105 12 0 15 13 15 59 0 33 4 62 9 65 5
4 19 -10 31 -29 28 -45 52 -45 82 3 l23 37 5 -65 c4 -51 9 -66 23 -68 15 -3
17 7 17 102 0 126 -8 133 -69 56 l-40 -51 -38 50 c-21 27 -46 50 -55 50 -16 1
-18 -10 -18 -104z"/>
<path d="M3110 2236 l0 -106 85 0 c78 0 85 2 85 20 0 18 -7 20 -65 20 l-64 0
-3 82 c-3 70 -6 83 -20 86 -16 3 -18 -7 -18 -102z"/>
<path d="M3397 2333 c-4 -3 -7 -51 -7 -105 0 -91 1 -98 20 -98 18 0 20 7 20
68 l1 67 30 -37 c17 -21 36 -38 42 -38 7 0 26 17 44 37 l32 38 1 -67 c0 -61 2
-68 20 -68 19 0 20 7 20 105 0 97 -1 105 -19 105 -12 0 -34 -20 -56 -50 -20
-28 -41 -48 -46 -45 -5 4 -23 26 -39 51 -29 41 -48 53 -63 37z"/>
<path d="M3682 2309 c-30 -30 -32 -35 -32 -105 0 -58 3 -74 14 -74 9 0 16 12
18 28 3 25 7 27 55 30 50 3 52 2 55 -25 2 -17 10 -29 21 -31 15 -3 17 7 17
102 l0 106 -58 0 c-52 0 -62 -4 -90 -31z m108 -44 l0 -35 -50 0 c-54 0 -61 10
-34 48 11 15 25 22 50 22 32 0 34 -2 34 -35z"/>
<path d="M3870 2234 c0 -95 2 -105 18 -102 13 2 18 17 22 68 l5 65 49 -68 c30
-40 57 -67 68 -67 16 0 18 10 18 105 0 87 -3 105 -15 105 -12 0 -15 -13 -15
-59 0 -33 -4 -62 -9 -65 -5 -4 -31 23 -57 59 -28 38 -55 65 -66 65 -16 0 -18
-10 -18 -106z"/>
<path d="M4088 2248 c-4 -104 -2 -118 17 -118 16 0 28 81 23 155 -2 37 -7 51
-20 53 -14 3 -17 -9 -20 -90z"/>
<path d="M4186 2309 c-23 -27 -26 -39 -26 -105 0 -58 3 -74 14 -74 9 0 16 12
18 28 3 25 7 27 55 30 50 3 52 2 55 -25 2 -17 10 -29 21 -31 15 -3 17 7 17
102 l0 106 -64 0 c-59 0 -66 -2 -90 -31z m114 -44 l0 -35 -50 0 c-40 0 -50 3
-50 17 0 28 31 53 67 53 31 0 33 -2 33 -35z"/>
<path d="M2308 2284 c-38 -25 -68 -48 -68 -52 0 -7 133 -92 144 -92 3 0 6 9 6
20 0 13 -13 28 -35 41 -19 12 -35 25 -35 30 0 5 16 19 35 31 23 15 35 31 35
46 0 12 -3 22 -7 21 -5 0 -38 -21 -75 -45z"/>
<path d="M4370 2310 c0 -12 16 -30 42 -46 l42 -27 -30 -24 c-16 -13 -35 -28
-41 -34 -15 -12 -17 -39 -3 -39 11 0 150 87 150 94 0 5 -146 96 -154 96 -3 0
-6 -9 -6 -20z"/>
<path d="M3285 2240 c-11 -18 5 -30 40 -30 30 0 52 19 38 34 -10 10 -71 7 -78
-4z"/>
<path d="M3790 1840 c0 -5 5 -10 10 -10 6 0 10 5 10 10 0 6 -4 10 -10 10 -5 0
-10 -4 -10 -10z"/>
<path d="M2466 1833 c-3 -3 -6 -33 -6 -65 l0 -58 40 0 c34 0 41 4 46 24 8 31
-11 66 -36 66 -11 0 -20 6 -20 14 0 17 -14 28 -24 19z m52 -78 c-2 -14 -7 -26
-13 -26 -5 0 -11 12 -13 26 -2 18 1 25 13 25 12 0 15 -7 13 -25z"/>
<path d="M2843 1820 c-3 -11 -13 -20 -22 -20 -23 0 -41 -20 -41 -45 0 -30 19
-45 57 -45 l33 0 0 65 c0 40 -4 65 -11 65 -6 0 -13 -9 -16 -20z m-5 -65 c-2
-14 -7 -26 -13 -26 -5 0 -11 12 -13 26 -2 18 1 25 13 25 12 0 15 -7 13 -25z"/>
<path d="M3616 1833 c-3 -3 -6 -33 -6 -65 0 -44 4 -58 14 -58 9 0 16 12 18 33
2 17 8 32 13 32 6 0 11 -15 13 -32 5 -49 24 -40 20 10 -2 35 -7 43 -25 45 -13
2 -23 10 -23 17 0 16 -14 27 -24 18z"/>
<path d="M4056 1833 c-3 -3 -6 -33 -6 -65 0 -45 3 -58 15 -58 11 0 15 11 15
36 0 45 24 42 28 -4 5 -48 24 -38 20 11 -2 35 -7 43 -25 45 -13 2 -23 10 -23
17 0 16 -14 27 -24 18z"/>
<path d="M4340 1781 c0 -33 5 -63 11 -66 16 -10 17 -5 11 63 -6 79 -22 81 -22
3z"/>
<path d="M3909 1808 c-5 -56 9 -98 32 -98 17 0 19 3 10 14 -7 8 -11 31 -9 52
2 30 -1 39 -14 42 -10 2 -19 -2 -19 -10z"/>
<path d="M2086 1764 c8 -48 12 -54 30 -54 8 0 14 9 14 20 0 11 4 20 9 20 5 0
11 -9 14 -20 9 -34 34 -23 45 20 5 21 7 42 4 45 -11 11 -22 4 -22 -15 0 -11
-4 -20 -10 -20 -5 0 -10 9 -10 20 0 30 -27 24 -35 -7 l-8 -28 -6 24 c-4 14
-12 26 -19 29 -10 3 -12 -5 -6 -34z"/>
<path d="M2302 1788 c-29 -29 -10 -78 31 -78 17 0 27 3 23 8 -4 4 -13 7 -18 7
-6 0 -13 6 -15 13 -3 7 5 12 21 12 15 0 26 6 26 13 0 18 -21 37 -40 37 -9 0
-21 -5 -28 -12z m38 -18 c0 -5 -2 -10 -4 -10 -3 0 -8 5 -11 10 -3 6 -1 10 4
10 6 0 11 -4 11 -10z"/>
<path d="M2972 1788 c-29 -29 -7 -78 35 -78 13 0 23 4 23 9 0 5 -7 8 -16 7 -9
0 -19 5 -21 12 -3 7 5 12 21 12 15 0 26 6 26 13 0 18 -21 37 -40 37 -9 0 -21
-5 -28 -12z"/>
<path d="M3130 1773 c15 -51 22 -63 36 -63 14 0 22 14 38 68 5 16 3 22 -7 22
-8 0 -18 -14 -22 -32 l-7 -33 -9 33 c-5 17 -16 32 -24 32 -10 0 -12 -7 -5 -27z"/>
<path d="M3406 1763 c4 -21 9 -41 11 -45 9 -17 30 -7 40 20 l11 27 1 -27 c1
-35 36 -39 45 -5 9 34 7 67 -4 67 -5 0 -10 -9 -10 -19 0 -11 -4 -23 -10 -26
-6 -4 -10 5 -10 19 0 35 -26 34 -35 -1 l-7 -28 -10 28 c-14 41 -30 33 -22 -10z"/>
<path d="M3790 1755 c0 -25 5 -45 10 -45 6 0 10 20 10 45 0 25 -4 45 -10 45
-5 0 -10 -20 -10 -45z"/>
<path d="M4471 1786 c-7 -8 -11 -27 -9 -43 3 -25 7 -28 38 -28 38 0 47 16 36
61 -7 28 -46 33 -65 10z m46 -22 c8 -21 -13 -42 -28 -27 -13 13 -5 43 11 43 6
0 13 -7 17 -16z"/>
<path d="M4630 1773 c15 -51 22 -63 36 -63 14 0 22 14 38 68 5 16 3 22 -7 22
-8 0 -18 -14 -22 -32 l-7 -33 -9 33 c-5 17 -16 32 -24 32 -10 0 -12 -7 -5 -27z"/>
<path d="M4802 1788 c-15 -15 -16 -50 0 -66 14 -14 58 -16 58 -3 0 5 -7 8 -16
7 -9 0 -19 5 -21 12 -3 7 5 12 22 12 22 0 26 4 23 23 -3 25 -45 36 -66 15z
m38 -18 c0 -5 -2 -10 -4 -10 -3 0 -8 5 -11 10 -3 6 -1 10 4 10 6 0 11 -4 11
-10z"/>
<path d="M2653 1763 c9 -2 23 -2 30 0 6 3 -1 5 -18 5 -16 0 -22 -2 -12 -5z"/>
</g>
</svg>
