<?xml version="1.0" standalone="no"?>
<!DOCTYPE svg PUBLIC "-//W3C//DTD SVG 20010904//EN"
 "http://www.w3.org/TR/2001/REC-SVG-20010904/DTD/svg10.dtd">
<svg version="1.0" xmlns="http://www.w3.org/2000/svg"
 width="849.000000pt" height="242.000000pt" viewBox="0 0 849.000000 242.000000"
 preserveAspectRatio="xMidYMid meet">

<g transform="translate(0.000000,242.000000) scale(0.100000,-0.100000)"
fill="#000000" stroke="none">
<path d="M1009 2274 c-393 -71 -738 -337 -884 -682 -63 -149 -79 -238 -79
-417 0 -141 4 -172 27 -260 91 -339 342 -620 682 -760 276 -114 614 -125 905
-29 226 75 442 229 581 413 112 149 194 364 207 541 25 336 -81 624 -317 860
-176 175 -402 290 -658 335 -107 19 -360 18 -464 -1z m116 -626 c28 -6 67 -19
88 -30 l37 -19 72 32 c142 62 255 46 362 -52 61 -55 84 -97 96 -172 18 -115
-24 -249 -117 -370 -115 -150 -357 -357 -417 -357 -63 0 -291 203 -414 368
-77 104 -104 172 -110 282 -5 98 6 147 47 212 70 110 184 144 356 106z m-530
-104 c8 -4 22 -19 31 -35 21 -41 7 -62 -130 -206 -64 -67 -116 -125 -116 -131
0 -5 8 -16 17 -23 43 -35 253 -273 253 -286 0 -24 -65 -83 -92 -83 -45 0 -325
265 -372 352 l-19 35 33 49 c47 68 245 266 304 303 52 32 63 35 91 25z m1393
-13 c36 -19 236 -214 306 -299 20 -24 36 -52 36 -62 0 -42 -331 -372 -387
-386 -30 -8 -71 19 -79 52 -10 38 9 66 140 201 l118 123 -50 57 c-27 32 -60
67 -72 78 -13 11 -49 50 -81 88 -68 78 -76 112 -33 146 33 26 54 26 102 2z"/>
<path d="M973 1480 c-18 -4 -40 -14 -49 -21 -45 -38 -57 -144 -24 -217 36 -79
147 -207 282 -325 l67 -59 93 86 c204 189 307 354 279 446 -33 112 -161 125
-305 30 l-66 -43 -48 32 c-98 65 -167 86 -229 71z"/>
<path d="M7082 1913 c3 -38 3 -38 51 -41 l47 -3 0 40 0 41 -51 0 -50 0 3 -37z"/>
<path d="M3360 1735 l0 -195 50 0 50 0 0 80 0 80 75 0 75 0 0 -80 0 -80 50 0
50 0 0 195 0 195 -50 0 -50 0 0 -75 0 -75 -75 0 -75 0 0 75 0 75 -50 0 -50 0
0 -195z"/>
<path d="M3762 1893 l3 -38 63 -3 62 -3 0 -154 0 -155 50 0 50 0 0 155 0 155
65 0 65 0 0 40 0 40 -181 0 -180 0 3 -37z"/>
<path d="M4170 1735 l0 -195 45 0 45 0 0 137 c0 83 4 133 9 128 5 -6 24 -46
42 -90 39 -97 45 -105 74 -105 29 0 34 8 75 105 18 44 37 84 42 90 4 5 8 -53
8 -128 l0 -137 45 0 45 0 0 195 0 195 -64 0 -63 0 -40 -97 c-23 -54 -44 -97
-48 -96 -5 1 -26 45 -48 97 l-40 96 -63 0 -64 0 0 -195z"/>
<path d="M4700 1735 l0 -195 141 0 140 0 -3 38 -3 37 -87 3 -88 3 0 154 0 155
-50 0 -50 0 0 -195z"/>
<path d="M5820 1735 l0 -195 45 0 45 0 0 137 c0 83 4 133 9 128 5 -6 24 -46
42 -90 39 -97 45 -105 74 -105 29 0 34 8 75 105 18 44 37 84 42 90 4 5 8 -53
8 -128 l0 -137 45 0 45 0 0 195 0 195 -64 0 -63 0 -40 -97 c-23 -54 -44 -97
-48 -96 -5 1 -26 45 -48 97 l-40 96 -63 0 -64 0 0 -195z"/>
<path d="M7294 1735 l-71 -195 52 0 c50 0 52 1 61 33 l10 32 80 3 81 3 9 -33
c9 -31 12 -33 62 -36 l52 -3 -36 98 c-20 54 -52 142 -71 196 l-36 97 -61 0
-61 0 -71 -195z m160 21 c14 -37 26 -70 26 -72 0 -2 -22 -4 -50 -4 -33 0 -50
4 -50 13 0 14 42 138 46 134 1 -1 14 -33 28 -71z"/>
<path d="M3128 1806 c-104 -61 -118 -73 -118 -96 0 -24 14 -35 120 -98 l120
-70 0 31 c0 29 -7 36 -85 82 -47 27 -85 52 -85 56 0 4 36 28 81 55 83 48 93
59 87 91 -3 16 -20 9 -120 -51z"/>
<path d="M7692 1848 c3 -28 12 -38 83 -80 44 -26 81 -51 82 -55 2 -5 -35 -30
-82 -58 -73 -43 -85 -54 -85 -77 0 -16 3 -28 6 -28 4 0 58 30 120 66 156 90
155 94 -7 192 l-120 72 3 -32z"/>
<path d="M6363 1823 c-7 -2 -13 -20 -13 -39 0 -32 1 -33 26 -24 35 14 118 12
132 -2 26 -26 12 -35 -59 -40 -60 -5 -75 -10 -97 -32 -38 -37 -37 -99 1 -132
37 -31 103 -33 141 -3 21 17 26 18 26 5 0 -12 11 -16 50 -16 l50 0 0 98 c0
108 -16 157 -60 179 -24 12 -171 17 -197 6z m157 -180 c0 -9 -7 -25 -17 -35
-28 -31 -83 -20 -83 16 0 31 7 36 57 36 33 0 43 -4 43 -17z"/>
<path d="M6700 1685 l0 -145 50 0 50 0 0 88 c0 106 14 135 63 130 l32 -3 3
-107 3 -108 49 0 50 0 0 100 c0 109 -14 161 -48 179 -34 18 -97 13 -126 -10
l-26 -20 0 20 c0 18 -6 21 -50 21 l-50 0 0 -145z"/>
<path d="M7080 1685 l0 -145 50 0 50 0 0 145 0 145 -50 0 -50 0 0 -145z"/>
<path d="M5240 1730 l0 -30 150 0 150 0 0 30 0 30 -150 0 -150 0 0 -30z"/>
<path d="M3990 1025 c0 -42 -2 -45 -19 -35 -34 18 -80 12 -106 -15 -21 -20
-25 -34 -25 -80 0 -46 4 -60 25 -80 26 -27 72 -33 106 -15 13 7 19 7 19 0 0
-5 16 -10 35 -10 l35 0 0 140 0 140 -35 0 c-35 0 -35 0 -35 -45z m-16 -81 c32
-32 12 -114 -28 -114 -22 0 -40 30 -40 65 0 56 36 82 68 49z"/>
<path d="M4120 1045 c0 -22 4 -25 35 -25 31 0 35 3 35 25 0 22 -4 25 -35 25
-31 0 -35 -3 -35 -25z"/>
<path d="M5470 930 l0 -140 35 0 35 0 0 69 c0 79 17 109 51 91 16 -9 19 -22
19 -85 l0 -75 35 0 35 0 0 69 c0 71 -12 120 -33 133 -17 11 -65 10 -88 -2 -17
-10 -19 -7 -19 35 0 45 0 45 -35 45 l-35 0 0 -140z"/>
<path d="M5740 1045 c0 -22 4 -25 35 -25 31 0 35 3 35 25 0 22 -4 25 -35 25
-31 0 -35 -3 -35 -25z"/>
<path d="M6050 930 l0 -140 35 0 35 0 0 69 c0 79 17 109 51 91 16 -9 19 -22
19 -85 l0 -75 35 0 35 0 0 69 c0 71 -12 120 -33 133 -17 11 -65 10 -88 -2 -17
-10 -19 -7 -19 35 0 45 0 45 -35 45 l-35 0 0 -140z"/>
<path d="M5887 1054 c-4 -4 -7 -18 -7 -31 0 -16 -6 -23 -20 -23 -14 0 -20 -7
-20 -21 0 -12 8 -23 20 -26 17 -5 20 -14 20 -68 0 -75 16 -95 78 -95 38 0 42
2 42 24 0 19 -6 25 -27 28 -26 3 -28 7 -31 56 l-3 52 35 0 c32 0 36 3 36 25 0
22 -4 25 -34 25 -30 0 -35 3 -38 28 -3 26 -34 43 -51 26z"/>
<path d="M6660 925 l0 -135 100 0 c99 0 100 0 100 25 0 23 -4 24 -62 27 l-63
3 -3 108 -3 107 -34 0 -35 0 0 -135z"/>
<path d="M6939 1045 c-77 -42 -77 -200 0 -239 17 -9 55 -16 87 -16 50 0 59 3
89 33 59 59 57 159 -6 211 -25 21 -41 26 -87 26 -31 -1 -69 -7 -83 -15z m127
-56 c12 -14 19 -36 19 -64 0 -55 -25 -85 -71 -85 -27 0 -36 6 -49 30 -8 16
-15 41 -15 55 0 14 7 39 15 55 13 24 22 30 49 30 21 0 40 -8 52 -21z"/>
<path d="M7188 1013 c11 -26 34 -87 52 -135 l33 -88 42 0 42 0 50 135 51 135
-37 0 -36 0 -34 -96 c-18 -52 -36 -93 -38 -90 -3 3 -19 44 -37 93 -31 88 -31
88 -69 91 l-37 3 18 -48z"/>
<path d="M7490 925 l0 -135 100 0 c99 0 100 0 100 25 0 23 -4 24 -62 27 -63 3
-63 3 -63 33 0 30 1 30 58 33 53 3 57 5 57 27 0 24 -3 25 -61 25 -57 0 -60 1
-57 23 3 19 10 22 61 25 53 3 57 5 57 27 0 25 -1 25 -95 25 l-95 0 0 -135z"/>
<path d="M3390 971 c-25 -24 -30 -38 -30 -76 0 -38 5 -52 30 -76 27 -27 35
-30 87 -27 55 3 58 5 61 30 3 27 2 27 -28 16 -60 -20 -103 26 -80 86 11 30 45
41 84 27 26 -11 27 -10 24 16 -3 27 -6 28 -61 31 -52 3 -60 0 -87 -27z"/>
<path d="M3609 971 c-40 -40 -41 -105 -3 -150 23 -28 32 -31 79 -31 43 0 60 5
82 24 25 21 28 31 28 81 0 50 -3 60 -28 81 -43 37 -118 34 -158 -5z m105 -27
c32 -32 12 -114 -28 -114 -22 0 -40 30 -40 65 0 56 36 82 68 49z"/>
<path d="M4120 895 l0 -105 35 0 35 0 0 105 0 105 -35 0 -35 0 0 -105z"/>
<path d="M4250 895 l0 -105 35 0 35 0 0 69 c0 79 17 109 51 91 16 -9 19 -22
19 -85 l0 -75 35 0 35 0 0 69 c0 71 -12 120 -33 133 -17 11 -65 10 -88 -2 -13
-7 -19 -7 -19 0 0 5 -16 10 -35 10 l-35 0 0 -105z"/>
<path d="M4535 975 c-20 -19 -25 -34 -25 -75 0 -44 5 -56 29 -81 33 -32 65
-37 99 -13 21 14 22 14 22 -5 0 -42 -53 -58 -114 -35 -12 5 -16 0 -16 -19 0
-22 6 -27 36 -33 53 -10 105 2 133 31 24 24 26 33 30 140 l3 115 -36 0 c-20 0
-36 -5 -36 -10 0 -7 -6 -7 -19 0 -34 18 -80 12 -106 -15z m109 -31 c33 -32 13
-104 -29 -104 -29 0 -37 11 -38 55 -2 56 34 82 67 49z"/>
<path d="M5139 898 l28 -103 35 -3 c32 -3 36 0 42 25 4 15 12 46 18 68 l11 40
16 -65 c17 -64 18 -65 52 -68 l35 -3 27 100 c15 55 27 103 27 106 0 3 -14 5
-32 3 -30 -3 -32 -6 -46 -67 -10 -44 -17 -60 -23 -50 -5 8 -9 21 -9 29 0 8 -5
32 -11 53 -8 32 -14 37 -38 37 -27 0 -29 -3 -41 -65 -7 -36 -16 -63 -20 -60
-4 2 -13 32 -20 65 -12 59 -14 60 -46 60 l-32 0 27 -102z"/>
<path d="M5740 895 l0 -105 35 0 35 0 0 105 0 105 -35 0 -35 0 0 -105z"/>
<path d="M4800 700 c0 -19 6 -20 131 -20 119 0 130 2 127 18 -3 15 -19 17
-131 20 -122 2 -127 2 -127 -18z"/>
<path d="M6330 700 c0 -19 6 -20 131 -20 119 0 130 2 127 18 -3 15 -19 17
-131 20 -122 2 -127 2 -127 -18z"/>
</g>
</svg>
