<?xml version="1.0" standalone="no"?>
<!DOCTYPE svg PUBLIC "-//W3C//DTD SVG 20010904//EN"
 "http://www.w3.org/TR/2001/REC-SVG-20010904/DTD/svg10.dtd">
<svg version="1.0" xmlns="http://www.w3.org/2000/svg"
 width="337.000000pt" height="61.000000pt" viewBox="0 0 337.000000 61.000000"
 preserveAspectRatio="xMidYMid meet">

<g transform="translate(0.000000,61.000000) scale(0.100000,-0.100000)"
fill="#000000" stroke="none">
<path d="M2884 578 c-47 -22 -56 -86 -19 -123 48 -49 135 -15 135 52 -1 32
-15 55 -47 71 -26 14 -41 14 -69 0z"/>
<path d="M26 485 c-12 -32 -7 -310 6 -323 12 -12 124 -17 152 -6 12 5 16 21
16 65 0 56 1 59 25 59 24 0 25 -2 25 -65 0 -58 2 -65 20 -65 18 0 20 7 20 65
0 51 3 65 15 65 8 0 15 6 15 14 0 8 -7 16 -15 20 -12 4 -15 25 -15 96 0 83 -2
90 -20 90 -18 0 -20 -8 -22 -92 -3 -85 -5 -93 -23 -93 -18 0 -20 8 -25 90 l-5
90 -81 3 c-68 2 -83 0 -88 -13z"/>
<path d="M340 479 c0 -18 5 -21 35 -17 l35 4 0 -147 c0 -114 3 -149 14 -158 9
-7 42 -11 88 -9 l73 3 3 157 2 156 40 -5 c36 -5 40 -3 40 16 0 21 -3 21 -165
21 -161 0 -165 0 -165 -21z"/>
<path d="M707 494 c-4 -4 -7 -83 -7 -176 l0 -168 26 0 27 0 -6 77 c-7 85 -9
85 45 -3 16 -25 33 -42 40 -39 7 3 27 31 43 63 l30 57 5 -75 5 -75 73 -3 c46
-2 79 2 88 9 11 9 14 44 14 159 0 82 -3 155 -6 164 -5 12 -21 16 -65 16 l-59
0 -27 -55 c-15 -30 -31 -54 -35 -53 -4 2 -23 26 -41 53 -32 49 -33 50 -87 53
-31 2 -59 0 -63 -4z"/>
<path d="M1144 487 c-2 -7 -3 -85 -2 -172 l3 -160 125 0 c114 0 125 2 128 19
4 17 -1 18 -37 13 l-41 -5 0 143 c0 79 -3 150 -6 159 -8 21 -162 24 -170 3z"/>
<path d="M1834 387 c-2 -7 -3 -62 -2 -123 l3 -109 73 -3 c46 -2 79 2 88 9 10
8 14 38 14 111 0 89 2 99 18 96 15 -3 17 -18 20 -111 2 -96 5 -108 20 -105 15
3 17 18 18 108 1 96 2 105 20 105 17 0 19 -9 22 -107 2 -87 6 -108 17 -108 12
0 15 20 15 114 0 79 -4 116 -12 123 -7 5 -79 11 -161 11 -115 2 -149 -1 -153
-11z"/>
<path d="M2261 387 c-50 -17 -52 -37 -4 -34 33 2 38 -1 41 -20 2 -15 -2 -23
-12 -23 -54 0 -94 -57 -76 -106 15 -40 67 -55 173 -52 l92 3 0 98 c0 96 -1
100 -28 123 -23 20 -39 24 -90 23 -34 0 -77 -5 -96 -12z m39 -152 c0 -57 -6
-63 -41 -45 -27 15 -25 64 3 84 34 24 38 20 38 -39z"/>
<path d="M2534 387 c-2 -7 -3 -62 -2 -123 l3 -109 80 0 80 0 5 105 c5 97 7
105 25 105 19 0 20 -8 23 -107 2 -87 6 -108 17 -108 12 0 15 20 15 114 0 79
-4 117 -12 124 -21 16 -227 15 -234 -1z"/>
<path d="M2837 394 c-4 -4 -7 -56 -7 -114 0 -80 4 -111 14 -119 9 -7 42 -11
88 -9 l73 3 0 120 0 120 -80 3 c-45 1 -84 0 -88 -4z"/>
<path d="M3105 385 c-22 -8 -41 -15 -43 -15 -2 0 -1 -4 3 -9 3 -5 20 -7 39 -4
25 4 35 1 40 -12 8 -22 -1 -35 -25 -35 -31 0 -69 -44 -69 -80 0 -63 49 -83
185 -78 l80 3 3 90 c3 98 -6 126 -45 144 -33 15 -120 13 -168 -4z m45 -156 c0
-41 -3 -49 -18 -49 -52 0 -67 81 -19 99 32 12 37 6 37 -50z"/>
<path d="M1400 45 l0 -25 200 0 200 0 0 25 0 25 -200 0 -200 0 0 -25z"/>
</g>
</svg>
