<?xml version="1.0" standalone="no"?>
<!DOCTYPE svg PUBLIC "-//W3C//DTD SVG 20010904//EN"
 "http://www.w3.org/TR/2001/REC-SVG-20010904/DTD/svg10.dtd">
<svg version="1.0" xmlns="http://www.w3.org/2000/svg"
 width="100.000000pt" height="100.000000pt" viewBox="0 0 100.000000 100.000000"
 preserveAspectRatio="xMidYMid meet">
<metadata>
Created by potrace 1.16, written by Peter Selinger 2001-2019
</metadata>
<g transform="translate(0.000000,100.000000) scale(0.100000,-0.100000)"
fill="#000000" stroke="none">
<path d="M42 928 c-9 -9 -12 -105 -12 -370 0 -343 1 -358 19 -368 12 -6 115
-10 265 -10 l246 0 0 -55 0 -55 -60 0 -60 0 0 46 c0 38 -3 45 -17 42 -12 -2
-19 -14 -21 -33 -5 -40 -17 -53 -55 -57 -21 -2 -33 -9 -35 -20 -3 -17 12 -18
198 -18 186 0 201 1 198 18 -2 12 -15 18 -43 20 -22 2 -45 8 -52 14 -12 10
-19 118 -9 118 3 0 22 -10 43 -22 58 -35 152 -32 216 5 65 39 100 93 105 168
6 74 -3 111 -25 107 -14 -3 -17 -16 -18 -74 0 -58 -4 -77 -25 -107 -27 -41
-107 -87 -150 -87 -42 0 -123 46 -149 85 -34 51 -39 122 -12 177 25 53 64 83
124 100 38 10 52 9 89 -5 54 -21 78 -22 78 -2 0 26 -60 49 -130 50 -81 0 -140
-30 -184 -93 -26 -37 -31 -54 -34 -115 -3 -62 0 -79 22 -120 l26 -47 -253 2
-252 3 -3 43 -3 42 215 0 c209 0 216 1 216 20 0 19 -7 20 -215 20 l-215 0 0
215 0 215 430 0 429 0 3 -92 c3 -79 6 -93 21 -96 16 -3 17 10 17 160 0 114 -4
168 -12 176 -17 17 -899 17 -916 0z m888 -68 l0 -40 -430 0 -430 0 0 40 0 40
430 0 430 0 0 -40z"/>
<path d="M830 445 l-95 -106 -33 41 c-35 42 -62 52 -62 22 0 -24 71 -111 92
-112 19 0 228 224 228 246 0 36 -43 6 -130 -91z"/>
</g>
</svg>
