<svg width="100" height="100" viewBox="0 0 100 100" fill="none" xmlns="http://www.w3.org/2000/svg">
<mask id="mask0" mask-type="alpha" maskUnits="userSpaceOnUse" x="3" y="5" width="94" height="92">
<path d="M4.2 7.20001C3.3 8.10001 3 17.7 3 44.2C3 78.5 3.1 80 4.9 81C6.1 81.6 16.4 82 31.4 82H56V87.5V93H50H44V88.4C44 84.6 43.7 83.9 42.3 84.2C41.1 84.4 40.4 85.6 40.2 87.5C39.7 91.5 38.5 92.8 34.7 93.2C32.6 93.4 31.4 94.1 31.2 95.2C30.9 96.9 32.4 97 51 97C69.6 97 71.1 96.9 70.8 95.2C70.6 94 69.3 93.4 66.5 93.2C64.3 93 62 92.4 61.3 91.8C60.1 90.8 59.4 80 60.4 80C60.7 80 62.6 81 64.7 82.2C70.5 85.7 79.9 85.4 86.3 81.7C92.8 77.8 96.3 72.4 96.8 64.9C97.4 57.5 96.5 53.8 94.3 54.2C92.9 54.5 92.6 55.8 92.5 61.6C92.5 67.4 92.1 69.3 90 72.3C87.3 76.4 79.3 81 75 81C70.8 81 62.7 76.4 60.1 72.5C56.7 67.4 56.2 60.3 58.9 54.8C61.4 49.5 65.3 46.5 71.3 44.8C75.1 43.8 76.5 43.9 80.2 45.3C85.6 47.4 88 47.5 88 45.5C88 42.9 82 40.6 75 40.5C66.9 40.5 61 43.5 56.6 49.8C54 53.5 53.5 55.2 53.2 61.3C52.9 67.5 53.2 69.2 55.4 73.3L58 78L32.7 77.8L7.5 77.5L7.2 73.2L6.9 69H28.4C49.3 69 50 68.9 50 67C50 65.1 49.3 65 28.5 65H7V43.5V22H50H92.9L93.2 31.2C93.5 39.1 93.8 40.5 95.3 40.8C96.9 41.1 97 39.8 97 24.8C97 13.4 96.6 8.00001 95.8 7.20001C94.1 5.50001 5.9 5.50001 4.2 7.20001ZM93 14V18H50H7V14V10H50H93V14Z" fill="#FF0101"/>
<path d="M83 55.5L73.5 66.1L70.2 62C66.7 57.8 64 56.8 64 59.8C64 62.2 71.1 70.9 73.2 71C75.1 71 96 48.6 96 46.4C96 42.8 91.7 45.8 83 55.5Z" fill="#FF0101"/>
</mask>
<g mask="url(#mask0)">
<path d="M4.2 7.20001C3.3 8.10001 3 17.7 3 44.2C3 78.5 3.1 80 4.9 81C6.1 81.6 16.4 82 31.4 82H56V87.5V93H50H44V88.4C44 84.6 43.7 83.9 42.3 84.2C41.1 84.4 40.4 85.6 40.2 87.5C39.7 91.5 38.5 92.8 34.7 93.2C32.6 93.4 31.4 94.1 31.2 95.2C30.9 96.9 32.4 97 51 97C69.6 97 71.1 96.9 70.8 95.2C70.6 94 69.3 93.4 66.5 93.2C64.3 93 62 92.4 61.3 91.8C60.1 90.8 59.4 80 60.4 80C60.7 80 62.6 81 64.7 82.2C70.5 85.7 79.9 85.4 86.3 81.7C92.8 77.8 96.3 72.4 96.8 64.9C97.4 57.5 96.5 53.8 94.3 54.2C92.9 54.5 92.6 55.8 92.5 61.6C92.5 67.4 92.1 69.3 90 72.3C87.3 76.4 79.3 81 75 81C70.8 81 62.7 76.4 60.1 72.5C56.7 67.4 56.2 60.3 58.9 54.8C61.4 49.5 65.3 46.5 71.3 44.8C75.1 43.8 76.5 43.9 80.2 45.3C85.6 47.4 88 47.5 88 45.5C88 42.9 82 40.6 75 40.5C66.9 40.5 61 43.5 56.6 49.8C54 53.5 53.5 55.2 53.2 61.3C52.9 67.5 53.2 69.2 55.4 73.3L58 78L32.7 77.8L7.5 77.5L7.2 73.2L6.9 69H28.4C49.3 69 50 68.9 50 67C50 65.1 49.3 65 28.5 65H7V43.5V22H50H92.9L93.2 31.2C93.5 39.1 93.8 40.5 95.3 40.8C96.9 41.1 97 39.8 97 24.8C97 13.4 96.6 8.00001 95.8 7.20001C94.1 5.50001 5.9 5.50001 4.2 7.20001ZM93 14V18H50H7V14V10H50H93V14Z" fill="#FF0101"/>
<path d="M83 55.5L73.5 66.1L70.2 62C66.7 57.8 64 56.8 64 59.8C64 62.2 71.1 70.9 73.2 71C75.1 71 96 48.6 96 46.4C96 42.8 91.7 45.8 83 55.5Z" fill="#FF0101"/>
</g>
</svg>
