<?xml version="1.0" standalone="no"?>
<!DOCTYPE svg PUBLIC "-//W3C//DTD SVG 20010904//EN"
 "http://www.w3.org/TR/2001/REC-SVG-20010904/DTD/svg10.dtd">
<svg version="1.0" xmlns="http://www.w3.org/2000/svg"
 width="100.000000pt" height="100.000000pt" viewBox="0 0 100.000000 100.000000"
 preserveAspectRatio="xMidYMid meet">
<metadata>
Created by potrace 1.16, written by Peter Selinger 2001-2019
</metadata>
<g transform="translate(0.000000,100.000000) scale(0.100000,-0.100000)"
fill="#000000" stroke="none">
<path d="M42 928 c-9 -9 -12 -86 -12 -286 0 -255 1 -273 18 -270 16 3 17 25
20 266 l2 262 430 0 429 0 3 -37 c4 -56 32 -51 36 5 6 76 32 72 -467 72 -334
0 -450 -3 -459 -12z"/>
<path d="M573 810 c-12 -5 -26 -18 -32 -29 -7 -13 -11 -140 -11 -365 0 -333 1
-347 20 -366 19 -19 33 -20 200 -20 167 0 181 1 200 20 19 19 20 33 20 369 0
328 -1 350 -19 372 -19 23 -24 24 -188 26 -92 1 -178 -2 -190 -7z m338 -40
c18 -10 19 -25 19 -343 0 -246 -3 -336 -12 -345 -17 -17 -319 -17 -336 0 -9 9
-12 99 -12 345 0 306 1 333 18 342 23 14 298 14 323 1z"/>
<path d="M30 275 c0 -63 3 -76 19 -85 11 -6 90 -10 185 -10 l166 0 0 -44 c0
-49 -11 -63 -55 -68 -19 -2 -31 -9 -33 -21 -3 -15 7 -17 103 -17 96 0 106 2
103 18 -2 12 -14 18 -41 20 l-37 3 0 55 c0 53 0 54 30 54 23 0 30 4 30 20 0
19 -8 20 -212 22 l-213 3 -3 43 -3 42 215 0 c209 0 216 1 216 20 0 19 -7 20
-235 20 l-235 0 0 -75z"/>
</g>
</svg>
