<svg width="100" height="100" viewBox="0 0 100 100" fill="none" xmlns="http://www.w3.org/2000/svg">
<mask id="mask0" mask-type="alpha" maskUnits="userSpaceOnUse" x="3" y="5" width="95" height="92">
<path d="M4.2 7.19999C3.3 8.09999 3 15.8 3 35.8C3 61.3 3.1 63.1 4.8 62.8C6.4 62.5 6.5 60.3 6.8 36.2L7 9.99999H50H92.9L93.2 13.7C93.6 19.3 96.4 18.8 96.8 13.2C97.4 5.59999 100 5.99999 50.1 5.99999C16.7 5.99999 5.1 6.29999 4.2 7.19999Z" fill="#FF0101"/>
<path d="M57.3 19C56.1 19.5 54.7 20.8 54.1 21.9C53.4 23.2 53 35.9 53 58.4C53 91.7 53.1 93.1 55 95C56.9 96.9 58.3 97 75 97C91.7 97 93.1 96.9 95 95C96.9 93.1 97 91.7 97 58.1C97 25.3 96.9 23.1 95.1 20.9C93.2 18.6 92.7 18.5 76.3 18.3C67.1 18.2 58.5 18.5 57.3 19ZM91.1 23C92.9 24 93 25.5 93 57.3C93 81.9 92.7 90.9 91.8 91.8C90.1 93.5 59.9 93.5 58.2 91.8C57.3 90.9 57 81.9 57 57.3C57 26.7 57.1 24 58.8 23.1C61.1 21.7 88.6 21.7 91.1 23Z" fill="#FF0101"/>
<path d="M3 72.5C3 78.8 3.3 80.1 4.9 81C6 81.6 13.9 82 23.4 82H40V86.4C40 91.3 38.9 92.7 34.5 93.2C32.6 93.4 31.4 94.1 31.2 95.3C30.9 96.8 31.9 97 41.5 97C51.1 97 52.1 96.8 51.8 95.2C51.6 94 50.4 93.4 47.7 93.2L44 92.9V87.4C44 82.1 44 82 47 82C49.3 82 50 81.6 50 80C50 78.1 49.2 78 28.8 77.8L7.5 77.5L7.2 73.2L6.9 69H28.4C49.3 69 50 68.9 50 67C50 65.1 49.3 65 26.5 65H3V72.5Z" fill="#FF0101"/>
</mask>
<g mask="url(#mask0)">
<path d="M4.2 7.19999C3.3 8.09999 3 15.8 3 35.8C3 61.3 3.1 63.1 4.8 62.8C6.4 62.5 6.5 60.3 6.8 36.2L7 9.99999H50H92.9L93.2 13.7C93.6 19.3 96.4 18.8 96.8 13.2C97.4 5.59999 100 5.99999 50.1 5.99999C16.7 5.99999 5.1 6.29999 4.2 7.19999Z" fill="#FF0101"/>
<path d="M57.3 19C56.1 19.5 54.7 20.8 54.1 21.9C53.4 23.2 53 35.9 53 58.4C53 91.7 53.1 93.1 55 95C56.9 96.9 58.3 97 75 97C91.7 97 93.1 96.9 95 95C96.9 93.1 97 91.7 97 58.1C97 25.3 96.9 23.1 95.1 20.9C93.2 18.6 92.7 18.5 76.3 18.3C67.1 18.2 58.5 18.5 57.3 19ZM91.1 23C92.9 24 93 25.5 93 57.3C93 81.9 92.7 90.9 91.8 91.8C90.1 93.5 59.9 93.5 58.2 91.8C57.3 90.9 57 81.9 57 57.3C57 26.7 57.1 24 58.8 23.1C61.1 21.7 88.6 21.7 91.1 23Z" fill="#FF0101"/>
<path d="M3 72.5C3 78.8 3.3 80.1 4.9 81C6 81.6 13.9 82 23.4 82H40V86.4C40 91.3 38.9 92.7 34.5 93.2C32.6 93.4 31.4 94.1 31.2 95.3C30.9 96.8 31.9 97 41.5 97C51.1 97 52.1 96.8 51.8 95.2C51.6 94 50.4 93.4 47.7 93.2L44 92.9V87.4C44 82.1 44 82 47 82C49.3 82 50 81.6 50 80C50 78.1 49.2 78 28.8 77.8L7.5 77.5L7.2 73.2L6.9 69H28.4C49.3 69 50 68.9 50 67C50 65.1 49.3 65 26.5 65H3V72.5Z" fill="#FF0101"/>
</g>
</svg>
