<?xml version="1.0" standalone="no"?>
<!DOCTYPE svg PUBLIC "-//W3C//DTD SVG 20010904//EN"
 "http://www.w3.org/TR/2001/REC-SVG-20010904/DTD/svg10.dtd">
<svg version="1.0" xmlns="http://www.w3.org/2000/svg"
 width="100.000000pt" height="100.000000pt" viewBox="0 0 100.000000 100.000000"
 preserveAspectRatio="xMidYMid meet">

<g transform="translate(0.000000,100.000000) scale(0.100000,-0.100000)"
fill="#000000" stroke="none">
<path d="M440 929 c-62 -10 -198 -73 -207 -95 -8 -22 5 -30 25 -16 43 32 144
73 191 79 l51 6 0 -77 0 -76 -65 0 c-36 0 -65 3 -65 6 0 3 16 25 35 48 39 48
42 56 20 56 -8 0 -32 -22 -52 -49 -37 -48 -39 -49 -82 -43 -34 4 -43 2 -39 -9
2 -7 15 -16 29 -19 29 -7 29 -7 1 -94 -12 -37 -22 -86 -22 -107 l0 -39 -65 0
c-50 0 -65 -3 -65 -15 0 -10 16 -15 62 -17 l63 -3 7 -58 c4 -31 18 -83 31
-116 l23 -58 -60 -12 c-58 -12 -60 -12 -78 11 -108 138 -108 345 -1 501 18 26
23 41 16 48 -14 14 -53 -37 -88 -113 -116 -254 27 -551 300 -623 254 -66 513
106 557 370 49 296 -223 564 -522 514z m213 -49 c61 -23 147 -75 147 -89 0
-16 -93 -32 -106 -18 -6 7 -35 38 -64 70 -29 31 -48 57 -42 57 6 0 35 -9 65
-20z m-29 -72 c20 -23 36 -45 36 -50 0 -4 -29 -8 -65 -8 l-65 0 0 71 0 70 29
-21 c17 -11 46 -39 65 -62z m244 -95 c31 -50 55 -112 66 -175 l7 -38 -79 0
c-86 0 -91 4 -92 68 0 12 -9 48 -21 80 -30 82 -30 83 21 97 67 18 66 19 98
-32z m-400 1 l32 -5 0 -104 0 -105 -105 0 -105 0 0 33 c0 36 25 127 45 167 14
27 37 29 133 14z m231 -23 c19 -36 33 -87 45 -158 l6 -33 -110 0 -110 0 0 105
c0 118 -6 111 95 118 28 2 51 4 52 5 2 1 11 -15 22 -37z m-199 -330 l0 -108
-72 -6 c-62 -6 -75 -4 -86 11 -19 25 -52 139 -52 178 l0 34 105 0 105 0 0
-109z m242 64 c-3 -35 -44 -170 -55 -181 -2 -2 -38 -1 -80 2 l-77 7 0 109 0
109 107 -3 108 -3 -3 -40z m192 37 c15 -25 -39 -180 -81 -231 -18 -23 -21 -23
-76 -11 -31 7 -57 15 -57 16 0 2 9 26 20 53 10 27 24 79 31 115 l11 66 73 0
c41 0 76 -3 79 -8z m-434 -312 c0 -66 -1 -70 -19 -61 -10 6 -40 34 -66 63 -46
52 -47 53 -24 59 13 4 43 7 67 8 l42 1 0 -70z m140 61 c25 -7 24 -8 -34 -69
-32 -34 -63 -62 -68 -62 -4 0 -8 32 -8 70 l0 70 43 -1 c23 -1 53 -4 67 -8z
m-292 -26 c4 -9 30 -38 56 -65 37 -38 44 -50 30 -50 -52 1 -216 93 -197 111
23 21 99 24 111 4z m445 -4 c13 -13 -63 -66 -129 -91 -74 -27 -93 -26 -57 4
16 14 42 44 58 66 29 41 30 42 74 36 25 -3 49 -10 54 -15z"/>
</g>
</svg>
