<svg width="100" height="100" viewBox="0 0 100 100" fill="none" xmlns="http://www.w3.org/2000/svg">
<mask id="mask0" mask-type="alpha" maskUnits="userSpaceOnUse" x="6" y="6" width="91" height="91">
<path d="M44 7.1C37.8 8.1 24.2 14.4 23.3 16.6C22.5 18.8 23.8 19.6 25.8 18.2C30.1 15 40.2 10.9 44.9 10.3L50 9.7V17.4V25H43.5C39.9 25 37 24.7 37 24.4C37 24.1 38.6 21.9 40.5 19.6C44.4 14.8 44.7 14 42.5 14C41.7 14 39.3 16.2 37.3 18.9C33.6 23.7 33.4 23.8 29.1 23.2C25.7 22.8 24.8 23 25.2 24.1C25.4 24.8 26.7 25.7 28.1 26C31 26.7 31 26.7 28.2 35.4C27 39.1 26 44 26 46.1V50H19.5C14.5 50 13 50.3 13 51.5C13 52.5 14.6 53 19.2 53.2L25.5 53.5L26.2 59.3C26.6 62.4 28 67.6 29.3 70.9L31.6 76.7L25.6 77.9C19.8 79.1 19.6 79.1 17.8 76.8C6.99999 63 6.99999 42.3 17.7 26.7C19.5 24.1 20 22.6 19.3 21.9C17.9 20.5 14 25.6 10.5 33.2C-1.10001 58.6 13.2 88.3 40.5 95.5C65.9 102.1 91.8 84.9 96.2 58.5C101.1 28.9 73.9 2.1 44 7.1ZM65.3 12C71.4 14.3 80 19.5 80 20.9C80 22.5 70.7 24.1 69.4 22.7C68.8 22 65.9 18.9 63 15.7C60.1 12.6 58.2 10 58.8 10C59.4 10 62.3 10.9 65.3 12ZM62.4 19.2C64.4 21.5 66 23.7 66 24.2C66 24.6 63.1 25 59.5 25H53V17.9V10.9L55.9 13C57.6 14.1 60.5 16.9 62.4 19.2ZM86.8 28.7C89.9 33.7 92.3 39.9 93.4 46.2L94.1 50H86.2C77.6 50 77.1 49.6 77 43.2C77 42 76.1 38.4 74.9 35.2C71.9 27 71.9 26.9 77 25.5C83.7 23.7 83.6 23.6 86.8 28.7ZM46.8 28.6L50 29.1V39.5V50H39.5H29V46.7C29 43.1 31.5 34 33.5 30C34.9 27.3 37.2 27.1 46.8 28.6ZM69.9 30.9C71.8 34.5 73.2 39.6 74.4 46.7L75 50H64H53V39.5C53 27.7 52.4 28.4 62.5 27.7C65.3 27.5 67.6 27.3 67.7 27.2C67.9 27.1 68.8 28.7 69.9 30.9ZM50 63.9V74.7L42.8 75.3C36.6 75.9 35.3 75.7 34.2 74.2C32.3 71.7 29 60.3 29 56.4V53H39.5H50V63.9ZM74.2 57.5C73.9 61 69.8 74.5 68.7 75.6C68.5 75.8 64.9 75.7 60.7 75.4L53 74.7V63.8V52.9L63.7 53.2L74.5 53.5L74.2 57.5ZM93.4 53.8C94.9 56.3 89.5 71.8 85.3 76.9C83.5 79.2 83.2 79.2 77.7 78C74.6 77.3 72 76.5 72 76.4C72 76.2 72.9 73.8 74 71.1C75 68.4 76.4 63.2 77.1 59.6L78.2 53H85.5C89.6 53 93.1 53.3 93.4 53.8ZM50 85C50 91.6 49.9 92 48.1 91.1C47.1 90.5 44.1 87.7 41.5 84.8C36.9 79.6 36.8 79.5 39.1 78.9C40.4 78.5 43.4 78.2 45.8 78.1L50 78V85ZM64 78.9C66.5 79.6 66.4 79.7 60.6 85.8C57.4 89.2 54.3 92 53.8 92C53.4 92 53 88.8 53 85V78L57.3 78.1C59.6 78.2 62.6 78.5 64 78.9ZM34.8 81.5C35.2 82.4 37.8 85.3 40.4 88C44.1 91.8 44.8 93 43.4 93C38.2 92.9 21.8 83.7 23.7 81.9C26 79.8 33.6 79.5 34.8 81.5ZM79.3 81.9C80.6 83.2 73 88.5 66.4 91C59 93.7 57.1 93.6 60.7 90.6C62.3 89.2 64.9 86.2 66.5 84C69.4 79.9 69.5 79.8 73.9 80.4C76.4 80.7 78.8 81.4 79.3 81.9Z" fill="#FF0101"/>
</mask>
<g mask="url(#mask0)">
<path d="M44 7.1C37.8 8.1 24.2 14.4 23.3 16.6C22.5 18.8 23.8 19.6 25.8 18.2C30.1 15 40.2 10.9 44.9 10.3L50 9.7V17.4V25H43.5C39.9 25 37 24.7 37 24.4C37 24.1 38.6 21.9 40.5 19.6C44.4 14.8 44.7 14 42.5 14C41.7 14 39.3 16.2 37.3 18.9C33.6 23.7 33.4 23.8 29.1 23.2C25.7 22.8 24.8 23 25.2 24.1C25.4 24.8 26.7 25.7 28.1 26C31 26.7 31 26.7 28.2 35.4C27 39.1 26 44 26 46.1V50H19.5C14.5 50 13 50.3 13 51.5C13 52.5 14.6 53 19.2 53.2L25.5 53.5L26.2 59.3C26.6 62.4 28 67.6 29.3 70.9L31.6 76.7L25.6 77.9C19.8 79.1 19.6 79.1 17.8 76.8C6.99999 63 6.99999 42.3 17.7 26.7C19.5 24.1 20 22.6 19.3 21.9C17.9 20.5 14 25.6 10.5 33.2C-1.10001 58.6 13.2 88.3 40.5 95.5C65.9 102.1 91.8 84.9 96.2 58.5C101.1 28.9 73.9 2.1 44 7.1ZM65.3 12C71.4 14.3 80 19.5 80 20.9C80 22.5 70.7 24.1 69.4 22.7C68.8 22 65.9 18.9 63 15.7C60.1 12.6 58.2 10 58.8 10C59.4 10 62.3 10.9 65.3 12ZM62.4 19.2C64.4 21.5 66 23.7 66 24.2C66 24.6 63.1 25 59.5 25H53V17.9V10.9L55.9 13C57.6 14.1 60.5 16.9 62.4 19.2ZM86.8 28.7C89.9 33.7 92.3 39.9 93.4 46.2L94.1 50H86.2C77.6 50 77.1 49.6 77 43.2C77 42 76.1 38.4 74.9 35.2C71.9 27 71.9 26.9 77 25.5C83.7 23.7 83.6 23.6 86.8 28.7ZM46.8 28.6L50 29.1V39.5V50H39.5H29V46.7C29 43.1 31.5 34 33.5 30C34.9 27.3 37.2 27.1 46.8 28.6ZM69.9 30.9C71.8 34.5 73.2 39.6 74.4 46.7L75 50H64H53V39.5C53 27.7 52.4 28.4 62.5 27.7C65.3 27.5 67.6 27.3 67.7 27.2C67.9 27.1 68.8 28.7 69.9 30.9ZM50 63.9V74.7L42.8 75.3C36.6 75.9 35.3 75.7 34.2 74.2C32.3 71.7 29 60.3 29 56.4V53H39.5H50V63.9ZM74.2 57.5C73.9 61 69.8 74.5 68.7 75.6C68.5 75.8 64.9 75.7 60.7 75.4L53 74.7V63.8V52.9L63.7 53.2L74.5 53.5L74.2 57.5ZM93.4 53.8C94.9 56.3 89.5 71.8 85.3 76.9C83.5 79.2 83.2 79.2 77.7 78C74.6 77.3 72 76.5 72 76.4C72 76.2 72.9 73.8 74 71.1C75 68.4 76.4 63.2 77.1 59.6L78.2 53H85.5C89.6 53 93.1 53.3 93.4 53.8ZM50 85C50 91.6 49.9 92 48.1 91.1C47.1 90.5 44.1 87.7 41.5 84.8C36.9 79.6 36.8 79.5 39.1 78.9C40.4 78.5 43.4 78.2 45.8 78.1L50 78V85ZM64 78.9C66.5 79.6 66.4 79.7 60.6 85.8C57.4 89.2 54.3 92 53.8 92C53.4 92 53 88.8 53 85V78L57.3 78.1C59.6 78.2 62.6 78.5 64 78.9ZM34.8 81.5C35.2 82.4 37.8 85.3 40.4 88C44.1 91.8 44.8 93 43.4 93C38.2 92.9 21.8 83.7 23.7 81.9C26 79.8 33.6 79.5 34.8 81.5ZM79.3 81.9C80.6 83.2 73 88.5 66.4 91C59 93.7 57.1 93.6 60.7 90.6C62.3 89.2 64.9 86.2 66.5 84C69.4 79.9 69.5 79.8 73.9 80.4C76.4 80.7 78.8 81.4 79.3 81.9Z" fill="#FF0101"/>
</g>
</svg>
