<?xml version="1.0" standalone="no"?>
<!DOCTYPE svg PUBLIC "-//W3C//DTD SVG 20010904//EN"
 "http://www.w3.org/TR/2001/REC-SVG-20010904/DTD/svg10.dtd">
<svg version="1.0" xmlns="http://www.w3.org/2000/svg"
 width="150.000000pt" height="150.000000pt" viewBox="0 0 150.000000 150.000000"
 preserveAspectRatio="xMidYMid meet">

<g transform="translate(0.000000,150.000000) scale(0.100000,-0.100000)"
fill="#000000" stroke="none">
<path d="M95 1486 c-41 -18 -83 -69 -90 -109 -3 -18 -5 -312 -3 -654 3 -610 3
-622 24 -649 11 -15 33 -37 48 -48 27 -21 37 -21 676 -21 639 0 649 0 676 21
15 11 37 33 48 48 21 27 21 40 24 590 2 470 0 565 -11 575 -11 8 -187 10 -668
9 l-654 -3 0 -25 0 -25 638 -3 638 -2 -3 -535 -3 -535 -28 -27 -27 -28 -630 0
-630 0 -27 28 -28 27 0 630 0 630 28 27 27 28 618 3 c452 2 624 -1 645 -9 29
-12 57 -55 57 -87 0 -24 28 -36 46 -21 36 30 -4 128 -66 159 -38 19 -57 20
-667 20 -500 -1 -634 -4 -658 -14z"/>
<path d="M160 1346 c0 -27 16 -36 65 -36 36 0 60 21 51 45 -4 11 -21 15 -61
15 -51 0 -55 -2 -55 -24z"/>
<path d="M347 1358 c-10 -29 13 -48 57 -48 46 0 72 19 62 45 -7 19 -112 22
-119 3z"/>
<path d="M1254 1355 c-11 -28 16 -46 65 -43 42 3 46 5 49 31 3 27 3 27 -53 27
-40 0 -57 -4 -61 -15z"/>
<path d="M186 1034 l-26 -27 0 -202 c0 -176 2 -204 16 -209 9 -3 135 -6 280
-6 l264 0 0 -170 0 -170 -247 2 -248 3 -2 115 c-4 146 -7 162 -36 158 -21 -3
-22 -7 -25 -144 -3 -141 -3 -141 24 -167 l27 -27 537 0 537 0 27 26 26 27 0
382 0 382 -27 27 -26 26 -281 -2 -281 -3 -3 -197 -2 -198 -250 0 -250 0 2 168
3 167 206 3 c215 3 238 7 223 46 -5 14 -32 16 -224 16 l-217 0 -27 -26z m1092
-206 l2 -168 -250 0 -250 0 0 170 0 170 248 -2 247 -3 3 -167z m0 -405 l-3
-168 -247 -3 -248 -2 0 170 0 170 250 0 250 0 -2 -167z"/>
</g>
</svg>
