<svg width="150" height="150" viewBox="0 0 150 150" fill="none" xmlns="http://www.w3.org/2000/svg">
<mask id="mask0" mask-type="alpha" maskUnits="userSpaceOnUse" x="0" y="0" width="150" height="150">
<path d="M9.50001 1.4C5.40001 3.2 1.20001 8.3 0.500013 12.3C0.200013 14.1 1.29801e-05 43.5 0.200013 77.7C0.500013 138.7 0.500013 139.9 2.60001 142.6C3.70001 144.1 5.90001 146.3 7.40001 147.4C10.1 149.5 11.1 149.5 75 149.5C138.9 149.5 139.9 149.5 142.6 147.4C144.1 146.3 146.3 144.1 147.4 142.6C149.5 139.9 149.5 138.6 149.8 83.6C150 36.6 149.8 27.1 148.7 26.1C147.6 25.3 130 25.1 81.9 25.2L16.5 25.5V28V30.5L80.3 30.8L144.1 31L143.8 84.5L143.5 138L140.7 140.7L138 143.5H75H12L9.30001 140.7L6.50001 138V75V12L9.30001 9.3L12 6.5L73.8 6.2C119 6 136.2 6.3 138.3 7.1C141.2 8.3 144 12.6 144 15.8C144 18.2 146.8 19.4 148.6 17.9C152.2 14.9 148.2 5.1 142 2C138.2 0.0999978 136.3 -2.22772e-06 75.3 -2.22772e-06C25.3 0.0999978 11.9 0.399998 9.50001 1.4Z" fill="#FF0101"/>
<path d="M16 15.4C16 18.1 17.6 19 22.5 19C26.1 19 28.5 16.9 27.6 14.5C27.2 13.4 25.5 13 21.5 13C16.4 13 16 13.2 16 15.4Z" fill="#FF0101"/>
<path d="M34.7 14.2C33.7 17.1 36 19 40.4 19C45 19 47.6 17.1 46.6 14.5C45.9 12.6 35.4 12.3 34.7 14.2Z" fill="#FF0101"/>
<path d="M125.4 14.5C124.3 17.3 127 19.1 131.9 18.8C136.1 18.5 136.5 18.3 136.8 15.7C137.1 13 137.1 13 131.5 13C127.5 13 125.8 13.4 125.4 14.5Z" fill="#FF0101"/>
<path d="M18.6 46.6L16 49.3V69.5C16 87.1 16.2 89.9 17.6 90.4C18.5 90.7 31.1 91 45.6 91H72V108V125L47.3 124.8L22.5 124.5L22.3 113C21.9 98.4 21.6 96.8 18.7 97.2C16.6 97.5 16.5 97.9 16.2 111.6C15.9 125.7 15.9 125.7 18.6 128.3L21.3 131H75H128.7L131.4 128.4L134 125.7V87.5V49.3L131.3 46.6L128.7 44L100.6 44.2L72.5 44.5L72.2 64.2L72 84H47H22L22.2 67.2L22.5 50.5L43.1 50.2C64.6 49.9 66.9 49.5 65.4 45.6C64.9 44.2 62.2 44 43 44H21.3L18.6 46.6ZM127.8 67.2L128 84H103H78V67V50L102.8 50.2L127.5 50.5L127.8 67.2ZM127.8 107.7L127.5 124.5L102.8 124.8L78 125V108V91H103H128L127.8 107.7Z" fill="#FF0101"/>
</mask>
<g mask="url(#mask0)">
<path d="M9.50001 1.4C5.40001 3.2 1.20001 8.3 0.500013 12.3C0.200013 14.1 1.29801e-05 43.5 0.200013 77.7C0.500013 138.7 0.500013 139.9 2.60001 142.6C3.70001 144.1 5.90001 146.3 7.40001 147.4C10.1 149.5 11.1 149.5 75 149.5C138.9 149.5 139.9 149.5 142.6 147.4C144.1 146.3 146.3 144.1 147.4 142.6C149.5 139.9 149.5 138.6 149.8 83.6C150 36.6 149.8 27.1 148.7 26.1C147.6 25.3 130 25.1 81.9 25.2L16.5 25.5V28V30.5L80.3 30.8L144.1 31L143.8 84.5L143.5 138L140.7 140.7L138 143.5H75H12L9.30001 140.7L6.50001 138V75V12L9.30001 9.3L12 6.5L73.8 6.2C119 6 136.2 6.3 138.3 7.1C141.2 8.3 144 12.6 144 15.8C144 18.2 146.8 19.4 148.6 17.9C152.2 14.9 148.2 5.1 142 2C138.2 0.0999978 136.3 -2.22772e-06 75.3 -2.22772e-06C25.3 0.0999978 11.9 0.399998 9.50001 1.4Z" fill="#FF0101"/>
<path d="M16 15.4C16 18.1 17.6 19 22.5 19C26.1 19 28.5 16.9 27.6 14.5C27.2 13.4 25.5 13 21.5 13C16.4 13 16 13.2 16 15.4Z" fill="#FF0101"/>
<path d="M34.7 14.2C33.7 17.1 36 19 40.4 19C45 19 47.6 17.1 46.6 14.5C45.9 12.6 35.4 12.3 34.7 14.2Z" fill="#FF0101"/>
<path d="M125.4 14.5C124.3 17.3 127 19.1 131.9 18.8C136.1 18.5 136.5 18.3 136.8 15.7C137.1 13 137.1 13 131.5 13C127.5 13 125.8 13.4 125.4 14.5Z" fill="#FF0101"/>
<path d="M18.6 46.6L16 49.3V69.5C16 87.1 16.2 89.9 17.6 90.4C18.5 90.7 31.1 91 45.6 91H72V108V125L47.3 124.8L22.5 124.5L22.3 113C21.9 98.4 21.6 96.8 18.7 97.2C16.6 97.5 16.5 97.9 16.2 111.6C15.9 125.7 15.9 125.7 18.6 128.3L21.3 131H75H128.7L131.4 128.4L134 125.7V87.5V49.3L131.3 46.6L128.7 44L100.6 44.2L72.5 44.5L72.2 64.2L72 84H47H22L22.2 67.2L22.5 50.5L43.1 50.2C64.6 49.9 66.9 49.5 65.4 45.6C64.9 44.2 62.2 44 43 44H21.3L18.6 46.6ZM127.8 67.2L128 84H103H78V67V50L102.8 50.2L127.5 50.5L127.8 67.2ZM127.8 107.7L127.5 124.5L102.8 124.8L78 125V108V91H103H128L127.8 107.7Z" fill="#FF0101"/>
</g>
</svg>
