<?xml version="1.0" standalone="no"?>
<!DOCTYPE svg PUBLIC "-//W3C//DTD SVG 20010904//EN"
 "http://www.w3.org/TR/2001/REC-SVG-20010904/DTD/svg10.dtd">
<svg version="1.0" xmlns="http://www.w3.org/2000/svg"
 width="100.000000pt" height="100.000000pt" viewBox="0 0 100.000000 100.000000"
 preserveAspectRatio="xMidYMid meet">

<g transform="translate(0.000000,100.000000) scale(0.100000,-0.100000)"
fill="#000000" stroke="none">
<path d="M132 898 c-15 -15 -17 -231 -2 -259 10 -18 23 -19 175 -19 l164 0 3
-40 c4 -52 22 -52 26 0 l3 40 167 2 167 3 0 140 0 140 -345 3 c-261 2 -349 -1
-358 -10z m678 -133 l0 -105 -325 0 -325 0 0 105 0 105 325 0 325 0 0 -105z"/>
<path d="M253 798 c3 -10 58 -13 232 -13 174 0 229 3 233 13 3 9 -48 12 -233
12 -185 0 -236 -3 -232 -12z"/>
<path d="M257 744 c-21 -21 13 -24 226 -22 148 2 231 7 230 13 -3 11 -445 20
-456 9z"/>
<path d="M126 484 c-9 -23 -7 -77 3 -93 15 -23 31 -2 31 40 l0 39 155 0 155 0
0 -45 c0 -33 4 -45 15 -45 11 0 15 12 15 45 l0 45 155 0 155 0 0 -45 c0 -33 4
-45 15 -45 12 0 15 13 15 60 l0 60 -354 0 c-313 0 -355 -2 -360 -16z"/>
<path d="M30 250 l0 -90 110 0 110 0 0 90 0 90 -110 0 -110 0 0 -90z m190 0
l0 -60 -80 0 -80 0 0 60 0 60 80 0 80 0 0 -60z"/>
<path d="M376 324 c-3 -9 -6 -42 -6 -74 0 -92 -3 -90 116 -90 l104 0 0 90 0
90 -104 0 c-85 0 -105 -3 -110 -16z m184 -74 l0 -60 -75 0 -75 0 0 60 0 60 75
0 75 0 0 -60z"/>
<path d="M720 250 l0 -90 110 0 110 0 0 90 0 90 -110 0 -110 0 0 -90z m190 0
l0 -60 -80 0 -80 0 0 60 0 60 80 0 80 0 0 -60z"/>
<path d="M33 108 c5 -18 209 -18 215 0 3 9 -23 12 -108 12 -85 0 -111 -3 -107
-12z"/>
<path d="M383 108 c2 -9 32 -13 102 -13 70 0 100 4 103 13 3 9 -22 12 -103 12
-81 0 -106 -3 -102 -12z"/>
<path d="M723 108 c5 -18 209 -18 215 0 3 9 -23 12 -108 12 -85 0 -111 -3
-107 -12z"/>
</g>
</svg>
