<svg width="100" height="100" viewBox="0 0 100 100" fill="none" xmlns="http://www.w3.org/2000/svg">
<path d="M13.2 10.2C11.7 11.7 11.5 33.3 13 36.1C14 37.9 15.3 38 30.5 38H46.9L47.2 42C47.6 47.2 49.4 47.2 49.8 42L50.1 38L66.8 37.8L83.5 37.5V23.5V9.50001L49 9.20001C22.9 9.00001 14.1 9.30001 13.2 10.2ZM81 23.5V34H48.5H16V23.5V13H48.5H81V23.5Z" fill="#FF0101"/>
<path d="M25.3 20.2C25.6 21.2 31.1 21.5 48.5 21.5C65.9 21.5 71.4 21.2 71.8 20.2C72.1 19.3 67 19 48.5 19C30 19 24.9 19.3 25.3 20.2Z" fill="#FF0101"/>
<path d="M25.7 25.6C23.6 27.7 27 28 48.3 27.8C63.1 27.6 71.4 27.1 71.3 26.5C71 25.4 26.8 24.5 25.7 25.6Z" fill="#FF0101"/>
<path d="M12.6 51.6C11.7 53.9 11.9 59.3 12.9 60.9C14.4 63.2 16 61.1 16 56.9V53H31.5H47V57.5C47 60.8 47.4 62 48.5 62C49.6 62 50 60.8 50 57.5V53H65.5H81V57.5C81 60.8 81.4 62 82.5 62C83.7 62 84 60.7 84 56V50H48.6C17.3 50 13.1 50.2 12.6 51.6Z" fill="#FF0101"/>
<path d="M3 75V84H14H25V75V66H14H3V75ZM22 75V81H14H6V75V69H14H22V75Z" fill="#FF0101"/>
<path d="M37.6 67.6C37.3 68.5 37 71.8 37 75C37 84.2 36.7 84 48.6 84H59V75V66H48.6C40.1 66 38.1 66.3 37.6 67.6ZM56 75V81H48.5H41V75V69H48.5H56V75Z" fill="#FF0101"/>
<path d="M72 75V84H83H94V75V66H83H72V75ZM91 75V81H83H75V75V69H83H91V75Z" fill="#FF0101"/>
<path d="M3.30001 89.2C3.80001 91 24.2 91 24.8 89.2C25.1 88.3 22.5 88 14 88C5.50001 88 2.90001 88.3 3.30001 89.2Z" fill="#FF0101"/>
<path d="M38.3 89.2C38.5 90.1 41.5 90.5 48.5 90.5C55.5 90.5 58.5 90.1 58.8 89.2C59.1 88.3 56.6 88 48.5 88C40.4 88 37.9 88.3 38.3 89.2Z" fill="#FF0101"/>
<path d="M72.3 89.2C72.8 91 93.2 91 93.8 89.2C94.1 88.3 91.5 88 83 88C74.5 88 71.9 88.3 72.3 89.2Z" fill="#FF0101"/>
<path d="M13.2 10.2C11.7 11.7 11.5 33.3 13 36.1C14 37.9 15.3 38 30.5 38H46.9L47.2 42C47.6 47.2 49.4 47.2 49.8 42L50.1 38L66.8 37.8L83.5 37.5V23.5V9.50001L49 9.20001C22.9 9.00001 14.1 9.30001 13.2 10.2ZM81 23.5V34H48.5H16V23.5V13H48.5H81V23.5Z" fill="#FF0101"/>
<path d="M25.3 20.2C25.6 21.2 31.1 21.5 48.5 21.5C65.9 21.5 71.4 21.2 71.8 20.2C72.1 19.3 67 19 48.5 19C30 19 24.9 19.3 25.3 20.2Z" fill="#FF0101"/>
<path d="M25.7 25.6C23.6 27.7 27 28 48.3 27.8C63.1 27.6 71.4 27.1 71.3 26.5C71 25.4 26.8 24.5 25.7 25.6Z" fill="#FF0101"/>
<path d="M12.6 51.6C11.7 53.9 11.9 59.3 12.9 60.9C14.4 63.2 16 61.1 16 56.9V53H31.5H47V57.5C47 60.8 47.4 62 48.5 62C49.6 62 50 60.8 50 57.5V53H65.5H81V57.5C81 60.8 81.4 62 82.5 62C83.7 62 84 60.7 84 56V50H48.6C17.3 50 13.1 50.2 12.6 51.6Z" fill="#FF0101"/>
<path d="M3 75V84H14H25V75V66H14H3V75ZM22 75V81H14H6V75V69H14H22V75Z" fill="#FF0101"/>
<path d="M37.6 67.6C37.3 68.5 37 71.8 37 75C37 84.2 36.7 84 48.6 84H59V75V66H48.6C40.1 66 38.1 66.3 37.6 67.6ZM56 75V81H48.5H41V75V69H48.5H56V75Z" fill="#FF0101"/>
<path d="M72 75V84H83H94V75V66H83H72V75ZM91 75V81H83H75V75V69H83H91V75Z" fill="#FF0101"/>
<path d="M3.30001 89.2C3.80001 91 24.2 91 24.8 89.2C25.1 88.3 22.5 88 14 88C5.50001 88 2.90001 88.3 3.30001 89.2Z" fill="#FF0101"/>
<path d="M38.3 89.2C38.5 90.1 41.5 90.5 48.5 90.5C55.5 90.5 58.5 90.1 58.8 89.2C59.1 88.3 56.6 88 48.5 88C40.4 88 37.9 88.3 38.3 89.2Z" fill="#FF0101"/>
<path d="M72.3 89.2C72.8 91 93.2 91 93.8 89.2C94.1 88.3 91.5 88 83 88C74.5 88 71.9 88.3 72.3 89.2Z" fill="#FF0101"/>
</svg>
