<?xml version="1.0" standalone="no"?>
<!DOCTYPE svg PUBLIC "-//W3C//DTD SVG 20010904//EN"
 "http://www.w3.org/TR/2001/REC-SVG-20010904/DTD/svg10.dtd">
<svg version="1.0" xmlns="http://www.w3.org/2000/svg"
 width="100.000000pt" height="100.000000pt" viewBox="0 0 100.000000 100.000000"
 preserveAspectRatio="xMidYMid meet">

<g transform="translate(0.000000,100.000000) scale(0.100000,-0.100000)"
fill="#000000" stroke="none">
<path d="M47 922 c-15 -17 -17 -59 -17 -394 0 -311 2 -378 14 -387 22 -19 84
-25 101 -11 23 19 8 30 -41 30 l-44 0 0 310 0 310 440 0 440 0 0 -310 0 -310
-44 0 c-49 0 -64 -11 -41 -30 17 -14 79 -8 101 11 12 9 14 76 14 389 0 352 -1
378 -18 393 -17 15 -63 17 -454 17 -409 0 -436 -1 -451 -18z m891 -64 l3 -48
-440 0 -441 0 0 43 c0 24 3 47 7 50 3 4 200 6 437 5 l431 -3 3 -47z"/>
<path d="M95 861 c-6 -11 9 -23 19 -14 9 9 7 23 -3 23 -6 0 -12 -4 -16 -9z"/>
<path d="M162 859 c2 -6 8 -10 13 -10 5 0 11 4 13 10 2 6 -4 11 -13 11 -9 0
-15 -5 -13 -11z"/>
<path d="M222 859 c2 -6 8 -10 13 -10 5 0 11 4 13 10 2 6 -4 11 -13 11 -9 0
-15 -5 -13 -11z"/>
<path d="M482 673 c-11 -4 -42 -54 -42 -68 0 -14 31 -3 40 15 6 11 15 20 19
20 13 0 282 -501 275 -511 -7 -12 -541 -12 -548 0 -3 4 42 97 101 205 74 138
103 200 95 208 -13 13 -15 10 -136 -216 -53 -99 -96 -187 -96 -197 0 -35 33
-39 310 -39 277 0 310 4 310 39 0 22 -274 531 -292 542 -14 10 -17 10 -36 2z"/>
<path d="M466 481 c-17 -19 -17 -24 -1 -103 9 -46 21 -87 26 -93 16 -16 27 7
44 93 16 79 16 84 -1 103 -9 10 -25 19 -34 19 -9 0 -25 -9 -34 -19z m45 -24
c-1 -4 -1 -23 -1 -42 0 -19 -4 -35 -9 -35 -10 0 -21 70 -14 83 6 9 25 5 24 -6z"/>
<path d="M465 230 c-27 -30 -7 -70 35 -70 42 0 62 40 35 70 -10 11 -26 20 -35
20 -9 0 -25 -9 -35 -20z m50 -19 c7 -12 -12 -24 -25 -16 -11 7 -4 25 10 25 5
0 11 -4 15 -9z"/>
</g>
</svg>
