<svg width="100" height="100" viewBox="0 0 100 100" fill="none" xmlns="http://www.w3.org/2000/svg">
<mask id="mask0" mask-type="alpha" maskUnits="userSpaceOnUse" x="3" y="6" width="94" height="85">
<path d="M4.7 7.79999C3.2 9.49999 3 13.7 3 47.2C3 78.3 3.2 85 4.4 85.9C6.6 87.8 12.8 88.4 14.5 87C16.8 85.1 15.3 84 10.4 84H6V53V22H50H94V53V84H89.6C84.7 84 83.2 85.1 85.5 87C87.2 88.4 93.4 87.8 95.6 85.9C96.8 85 97 78.3 97 47C97 11.8 96.9 9.19999 95.2 7.69999C93.5 6.19999 88.9 5.99999 49.8 5.99999C8.9 5.99999 6.2 6.09999 4.7 7.79999ZM93.8 14.2L94.1 19H50.1H6V14.7C6 12.3 6.3 9.99999 6.7 9.69999C7 9.29999 26.7 9.09999 50.4 9.19999L93.5 9.49999L93.8 14.2Z" fill="#FF0101"/>
<path d="M9.49999 13.9C8.89999 15 10.4 16.2 11.4 15.3C12.3 14.4 12.1 13 11.1 13C10.5 13 9.89999 13.4 9.49999 13.9Z" fill="#FF0101"/>
<path d="M16.2 14.1C16.4 14.7 17 15.1 17.5 15.1C18 15.1 18.6 14.7 18.8 14.1C19 13.5 18.4 13 17.5 13C16.6 13 16 13.5 16.2 14.1Z" fill="#FF0101"/>
<path d="M22.2 14.1C22.4 14.7 23 15.1 23.5 15.1C24 15.1 24.6 14.7 24.8 14.1C25 13.5 24.4 13 23.5 13C22.6 13 22 13.5 22.2 14.1Z" fill="#FF0101"/>
<path d="M48.2 32.7C47.1 33.1 44 38.1 44 39.5C44 40.9 47.1 39.8 48 38C48.6 36.9 49.5 36 49.9 36C51.2 36 78.1 86.1 77.4 87.1C76.7 88.3 23.3 88.3 22.6 87.1C22.3 86.7 26.8 77.4 32.7 66.6C40.1 52.8 43 46.6 42.2 45.8C40.9 44.5 40.7 44.8 28.6 67.4C23.3 77.3 19 86.1 19 87.1C19 90.6 22.3 91 50 91C77.7 91 81 90.6 81 87.1C81 84.9 53.6 34 51.8 32.9C50.4 31.9 50.1 31.9 48.2 32.7Z" fill="#FF0101"/>
<path d="M46.6 51.9C44.9 53.8 44.9 54.3 46.5 62.2C47.4 66.8 48.6 70.9 49.1 71.5C50.7 73.1 51.8 70.8 53.5 62.2C55.1 54.3 55.1 53.8 53.4 51.9C52.5 50.9 50.9 50 50 50C49.1 50 47.5 50.9 46.6 51.9ZM51.1 54.3C51 54.7 51 56.6 51 58.5C51 60.4 50.6 62 50.1 62C49.1 62 48 55 48.7 53.7C49.3 52.8 51.2 53.2 51.1 54.3Z" fill="#FF0101"/>
<path d="M46.5 77C43.8 80 45.8 84 50 84C54.2 84 56.2 80 53.5 77C52.5 75.9 50.9 75 50 75C49.1 75 47.5 75.9 46.5 77ZM51.5 78.9C52.2 80.1 50.3 81.3 49 80.5C47.9 79.8 48.6 78 50 78C50.5 78 51.1 78.4 51.5 78.9Z" fill="#FF0101"/>
</mask>
<g mask="url(#mask0)">
<path d="M4.7 7.79999C3.2 9.49999 3 13.7 3 47.2C3 78.3 3.2 85 4.4 85.9C6.6 87.8 12.8 88.4 14.5 87C16.8 85.1 15.3 84 10.4 84H6V53V22H50H94V53V84H89.6C84.7 84 83.2 85.1 85.5 87C87.2 88.4 93.4 87.8 95.6 85.9C96.8 85 97 78.3 97 47C97 11.8 96.9 9.19999 95.2 7.69999C93.5 6.19999 88.9 5.99999 49.8 5.99999C8.9 5.99999 6.2 6.09999 4.7 7.79999ZM93.8 14.2L94.1 19H50.1H6V14.7C6 12.3 6.3 9.99999 6.7 9.69999C7 9.29999 26.7 9.09999 50.4 9.19999L93.5 9.49999L93.8 14.2Z" fill="#FF0101"/>
<path d="M9.49999 13.9C8.89999 15 10.4 16.2 11.4 15.3C12.3 14.4 12.1 13 11.1 13C10.5 13 9.89999 13.4 9.49999 13.9Z" fill="#FF0101"/>
<path d="M16.2 14.1C16.4 14.7 17 15.1 17.5 15.1C18 15.1 18.6 14.7 18.8 14.1C19 13.5 18.4 13 17.5 13C16.6 13 16 13.5 16.2 14.1Z" fill="#FF0101"/>
<path d="M22.2 14.1C22.4 14.7 23 15.1 23.5 15.1C24 15.1 24.6 14.7 24.8 14.1C25 13.5 24.4 13 23.5 13C22.6 13 22 13.5 22.2 14.1Z" fill="#FF0101"/>
<path d="M48.2 32.7C47.1 33.1 44 38.1 44 39.5C44 40.9 47.1 39.8 48 38C48.6 36.9 49.5 36 49.9 36C51.2 36 78.1 86.1 77.4 87.1C76.7 88.3 23.3 88.3 22.6 87.1C22.3 86.7 26.8 77.4 32.7 66.6C40.1 52.8 43 46.6 42.2 45.8C40.9 44.5 40.7 44.8 28.6 67.4C23.3 77.3 19 86.1 19 87.1C19 90.6 22.3 91 50 91C77.7 91 81 90.6 81 87.1C81 84.9 53.6 34 51.8 32.9C50.4 31.9 50.1 31.9 48.2 32.7Z" fill="#FF0101"/>
<path d="M46.6 51.9C44.9 53.8 44.9 54.3 46.5 62.2C47.4 66.8 48.6 70.9 49.1 71.5C50.7 73.1 51.8 70.8 53.5 62.2C55.1 54.3 55.1 53.8 53.4 51.9C52.5 50.9 50.9 50 50 50C49.1 50 47.5 50.9 46.6 51.9ZM51.1 54.3C51 54.7 51 56.6 51 58.5C51 60.4 50.6 62 50.1 62C49.1 62 48 55 48.7 53.7C49.3 52.8 51.2 53.2 51.1 54.3Z" fill="#FF0101"/>
<path d="M46.5 77C43.8 80 45.8 84 50 84C54.2 84 56.2 80 53.5 77C52.5 75.9 50.9 75 50 75C49.1 75 47.5 75.9 46.5 77ZM51.5 78.9C52.2 80.1 50.3 81.3 49 80.5C47.9 79.8 48.6 78 50 78C50.5 78 51.1 78.4 51.5 78.9Z" fill="#FF0101"/>
</g>
</svg>
