<?xml version="1.0" standalone="no"?>
<!DOCTYPE svg PUBLIC "-//W3C//DTD SVG 20010904//EN"
 "http://www.w3.org/TR/2001/REC-SVG-20010904/DTD/svg10.dtd">
<svg version="1.0" xmlns="http://www.w3.org/2000/svg"
 width="128.000000pt" height="128.000000pt" viewBox="0 0 128.000000 128.000000"
 preserveAspectRatio="xMidYMid meet">

<g transform="translate(0.000000,128.000000) scale(0.100000,-0.100000)"
fill="#000000" stroke="none">
<path d="M521 1104 c-234 -63 -388 -294 -354 -529 22 -153 118 -288 254 -360
86 -45 101 -42 97 22 l-3 48 -52 5 c-53 6 -103 38 -103 68 0 8 -16 30 -35 49
-19 19 -35 37 -35 39 0 2 10 4 23 4 14 0 43 -19 74 -50 38 -37 59 -50 80 -50
37 0 62 19 65 49 3 21 -4 27 -47 43 -27 10 -61 26 -74 36 -65 48 -93 194 -52
272 14 27 21 59 21 95 0 73 20 85 88 55 40 -18 66 -22 173 -22 96 0 134 4 157
16 37 19 73 21 90 4 7 -7 12 -34 12 -60 0 -29 8 -65 20 -88 23 -44 26 -122 9
-185 -15 -52 -72 -106 -134 -126 -40 -12 -49 -19 -47 -35 2 -10 6 -63 9 -117
4 -67 10 -100 18 -103 25 -10 127 48 191 108 194 182 204 477 21 674 -118 128
-302 182 -466 138z"/>
</g>
</svg>
