<svg width="128" height="128" xmlns="http://www.w3.org/2000/svg" preserveAspectRatio="xMidYMid meet">

 <g>
  <title>background</title>
  <rect fill="none" id="canvas_background" height="402" width="582" y="-1" x="-1"/>
 </g>
 <g>
  <title>Layer 1</title>
  <g id="svg_1" fill="#000000" transform="translate(0,128) scale(0.10000000149011612,-0.10000000149011612) ">
   <path fill="#ff0000" id="svg_2" d="m521,1104c-234,-63 -388,-294 -354,-529c22,-153 118,-288 254,-360c86,-45 101,-42 97,22l-3,48l-52,5c-53,6 -103,38 -103,68c0,8 -16,30 -35,49c-19,19 -35,37 -35,39c0,2 10,4 23,4c14,0 43,-19 74,-50c38,-37 59,-50 80,-50c37,0 62,19 65,49c3,21 -4,27 -47,43c-27,10 -61,26 -74,36c-65,48 -93,194 -52,272c14,27 21,59 21,95c0,73 20,85 88,55c40,-18 66,-22 173,-22c96,0 134,4 157,16c37,19 73,21 90,4c7,-7 12,-34 12,-60c0,-29 8,-65 20,-88c23,-44 26,-122 9,-185c-15,-52 -72,-106 -134,-126c-40,-12 -49,-19 -47,-35c2,-10 6,-63 9,-117c4,-67 10,-100 18,-103c25,-10 127,48 191,108c194,182 204,477 21,674c-118,128 -302,182 -466,138z"/>
  </g>
 </g>
</svg>