<?xml version="1.0" standalone="no"?>
<!DOCTYPE svg PUBLIC "-//W3C//DTD SVG 20010904//EN"
 "http://www.w3.org/TR/2001/REC-SVG-20010904/DTD/svg10.dtd">
<svg version="1.0" xmlns="http://www.w3.org/2000/svg"
 width="115.000000pt" height="115.000000pt" viewBox="0 0 115.000000 115.000000"
 preserveAspectRatio="xMidYMid meet">

<g transform="translate(0.000000,115.000000) scale(0.100000,-0.100000)"
fill="#000000" stroke="none">
<path d="M950 1003 c-194 -84 -798 -357 -808 -366 -7 -5 -12 -20 -10 -31 2
-17 26 -30 113 -63 l110 -41 41 -150 c23 -82 44 -155 48 -161 14 -22 36 -9 98
59 l63 70 109 -95 c107 -93 134 -107 153 -82 10 12 153 812 153 855 0 26 -19
27 -70 5z m-96 -155 c-4 -6 -89 -100 -189 -209 -190 -205 -195 -213 -195 -303
-1 -57 -13 -32 -41 87 -23 97 -23 98 -4 116 37 35 417 321 426 321 6 0 7 -5 3
-12z"/>
</g>
</svg>
