<svg width="115" height="115" xmlns="http://www.w3.org/2000/svg" preserveAspectRatio="xMidYMid meet">

 <g>
  <title>background</title>
  <rect fill="none" id="canvas_background" height="402" width="582" y="-1" x="-1"/>
 </g>
 <g>
  <title>Layer 1</title>
  <g id="svg_1" fill="#000000" transform="translate(0,115) scale(0.10000000149011612,-0.10000000149011612) ">
   <path fill="#ff0000" id="svg_2" d="m950,1003c-194,-84 -798,-357 -808,-366c-7,-5 -12,-20 -10,-31c2,-17 26,-30 113,-63l110,-41l41,-150c23,-82 44,-155 48,-161c14,-22 36,-9 98,59l63,70l109,-95c107,-93 134,-107 153,-82c10,12 153,812 153,855c0,26 -19,27 -70,5zm-96,-155c-4,-6 -89,-100 -189,-209c-190,-205 -195,-213 -195,-303c-1,-57 -13,-32 -41,87c-23,97 -23,98 -4,116c37,35 417,321 426,321c6,0 7,-5 3,-12z"/>
  </g>
 </g>
</svg>