<?xml version="1.0" standalone="no"?>
<!DOCTYPE svg PUBLIC "-//W3C//DTD SVG 20010904//EN"
 "http://www.w3.org/TR/2001/REC-SVG-20010904/DTD/svg10.dtd">
<svg version="1.0" xmlns="http://www.w3.org/2000/svg"
 width="128.000000pt" height="128.000000pt" viewBox="0 0 128.000000 128.000000"
 preserveAspectRatio="xMidYMid meet">

<g transform="translate(0.000000,128.000000) scale(0.100000,-0.100000)"
fill="#000000" stroke="none">
<path d="M80 887 c0 -61 34 -189 67 -250 15 -29 59 -84 98 -123 104 -106 214
-156 374 -170 106 -9 111 -5 111 97 l0 79 93 0 c74 0 98 -4 125 -20 39 -24 72
-75 72 -111 0 -41 20 -50 102 -47 l73 3 -1 60 c-1 69 -33 142 -82 188 l-30 29
39 51 c43 57 79 156 79 218 l0 40 -87 -3 -88 -3 -7 -49 c-15 -108 -100 -176
-219 -176 l-68 0 -3 113 -3 112 -85 0 -85 0 -3 -197 -2 -198 -43 17 c-138 54
-233 178 -245 319 l-5 64 -88 0 -89 0 0 -43z"/>
</g>
</svg>
