<svg width="128" height="128" xmlns="http://www.w3.org/2000/svg" preserveAspectRatio="xMidYMid meet">

 <g>
  <title>background</title>
  <rect fill="none" id="canvas_background" height="402" width="582" y="-1" x="-1"/>
 </g>
 <g>
  <title>Layer 1</title>
  <g id="svg_1" fill="#000000" transform="translate(0,128) scale(0.10000000149011612,-0.10000000149011612) ">
   <path fill="#ff0000" id="svg_2" d="m80,887c0,-61 34,-189 67,-250c15,-29 59,-84 98,-123c104,-106 214,-156 374,-170c106,-9 111,-5 111,97l0,79l93,0c74,0 98,-4 125,-20c39,-24 72,-75 72,-111c0,-41 20,-50 102,-47l73,3l-1,60c-1,69 -33,142 -82,188l-30,29l39,51c43,57 79,156 79,218l0,40l-87,-3l-88,-3l-7,-49c-15,-108 -100,-176 -219,-176l-68,0l-3,113l-3,112l-85,0l-85,0l-3,-197l-2,-198l-43,17c-138,54 -233,178 -245,319l-5,64l-88,0l-89,0l0,-43z"/>
  </g>
 </g>
</svg>